<?xml version="1.0" encoding="utf-8"?>
<!-- Generator: Adobe Illustrator 18.0.0, SVG Export Plug-In . SVG Version: 6.00 Build 0)  -->
<!DOCTYPE svg PUBLIC "-//W3C//DTD SVG 1.1//EN" "http://www.w3.org/Graphics/SVG/1.1/DTD/svg11.dtd">
<svg version="1.1" id="Layer_1" xmlns="http://www.w3.org/2000/svg" xmlns:xlink="http://www.w3.org/1999/xlink" x="0px" y="0px"
	 viewBox="180 7 426.3 445.9" enable-background="new 180 7 426.3 445.9" xml:space="preserve">
<g>
	<g>
		<path fill="#1D79AE" d="M521,451H211.4c-15.3,0-27.7-12.4-27.7-27.7V113.7c0-15.3,12.4-27.7,27.7-27.7h211.2
			c15.3,0,27.7,12.4,27.7,27.7s-12.4,27.7-27.7,27.7H239.1v254.3h254.3V265.5c0-15.3,12.4-27.7,27.7-27.7s27.7,12.4,27.7,27.7v157.8
			C548.7,438.6,536.3,451,521,451z"/>
	</g>
	<g>
		<path fill="#20375F" d="M384.6,339.9c-7.2,0-14.2-2.8-19.4-7.9L276,244.7c-10.9-10.7-11.1-28.2-0.4-39.2
			c10.7-10.9,28.2-11.1,39.2-0.4l65.9,64.4L555.9,18.8c8.8-12.5,26-15.6,38.6-6.8c12.5,8.8,15.6,26,6.8,38.6L407.3,328
			c-4.7,6.7-12,10.9-20.1,11.7C386.3,339.8,385.5,339.9,384.6,339.9z"/>
	</g>
</g>
</svg>
