<?xml version="1.0" encoding="utf-8"?>
<!-- Generator: Adobe Illustrator 18.0.0, SVG Export Plug-In . SVG Version: 6.00 Build 0)  -->
<!DOCTYPE svg PUBLIC "-//W3C//DTD SVG 1.1//EN" "http://www.w3.org/Graphics/SVG/1.1/DTD/svg11.dtd">
<svg version="1.1" id="Layer_1" xmlns="http://www.w3.org/2000/svg" xmlns:xlink="http://www.w3.org/1999/xlink" x="0px" y="0px"
	 viewBox="279 74 235 478" enable-background="new 279 74 235 478" xml:space="preserve">
<g>
	<path fill="#0D3860" d="M280.2,328.4v-80.5h59.1v-68.8c0-13.8,2.3-26.8,6.9-39c4.6-12.2,11.4-23.1,20.5-32.9
		c9.1-9.8,21.2-17.5,36.3-23.1c15.1-5.7,32.4-8.5,51.7-8.5c9.6,0,19.1,0.3,28.6,0.8c9.5,0.5,16.5,1,21.2,1.5l7,0.7l-1.9,75.1
		c-16.4-0.2-33.6-0.2-51.4-0.2c-13.5,0-22.5,2.9-27,8.6c-4.5,5.7-6.7,14.7-6.7,27v3.7v55.1h87.4l-4,80.5h-83.5v223.5h-85.1V328.4
		H280.2z"/>
</g>
</svg>
