<?xml version="1.0" encoding="utf-8"?>
<!-- Generator: Adobe Illustrator 18.0.0, SVG Export Plug-In . SVG Version: 6.00 Build 0)  -->
<!DOCTYPE svg PUBLIC "-//W3C//DTD SVG 1.1//EN" "http://www.w3.org/Graphics/SVG/1.1/DTD/svg11.dtd">
<svg version="1.1" id="Layer_1" xmlns="http://www.w3.org/2000/svg" xmlns:xlink="http://www.w3.org/1999/xlink" x="0px" y="0px"
	 viewBox="0 0 155.6 146.3" enable-background="new 0 0 155.6 146.3" xml:space="preserve">
<g>
	<path fill="#FFFFFF" d="M78.8,146.3c-40.3,0-73.2-32.8-73.2-73.2S38.5,0,78.8,0C119.2,0,152,32.8,152,73.2S119.2,146.3,78.8,146.3z
		 M78.8,6c-37,0-67.2,30.1-67.2,67.2c0,37,30.1,67.2,67.2,67.2S146,110.2,146,73.2C146,36.1,115.9,6,78.8,6z"/>
</g>
<g>
	<path fill="#FFFFFF" d="M71.6,113.2c-4.1-0.1-7.7-0.6-10.7-1.3c-3.1-0.7-5.5-1.6-7.2-2.5l4.2-12.3c1.3,0.8,3.1,1.5,5.4,2.3
		c2.3,0.7,5.1,1.2,8.3,1.5V79.1c-2.2-1-4.4-2.1-6.6-3.3c-2.2-1.2-4.1-2.7-5.8-4.4c-1.7-1.7-3.1-3.8-4.1-6.2c-1-2.4-1.6-5.2-1.6-8.5
		c0-6.2,1.6-10.9,4.9-14.3c3.3-3.4,7.7-5.6,13.3-6.6V26h11.2v9.3c3.1,0.2,5.9,0.6,8.3,1.3c2.4,0.6,4.5,1.4,6.5,2.2l-3.9,11.8
		c-1.2-0.6-2.8-1.1-4.6-1.7c-1.9-0.6-4-1-6.3-1.3v20.2c2.2,1,4.5,2.1,6.7,3.4c2.3,1.3,4.3,2.7,6,4.5c1.8,1.7,3.2,3.7,4.3,6.1
		c1.1,2.3,1.7,5.1,1.7,8.3c0,6.6-1.7,11.7-5,15.4c-3.3,3.7-7.9,6.1-13.7,7.1v10H71.6V113.2z M67.4,55.4c0,2.2,0.8,4,2.5,5.4
		c1.7,1.4,3.8,2.8,6.3,4V47.3c-3.4,0.1-5.7,1-6.9,2.5C68.1,51.3,67.4,53.2,67.4,55.4z M87.5,91.5c0-2.3-0.9-4.1-2.7-5.6
		c-1.8-1.4-4-2.8-6.6-4v18.9c3.1-0.4,5.5-1.3,7-3C86.7,96.3,87.5,94.1,87.5,91.5z"/>
</g>
</svg>
