<?xml version="1.0" encoding="utf-8"?>
<!-- Generator: Adobe Illustrator 18.0.0, SVG Export Plug-In . SVG Version: 6.00 Build 0)  -->
<!DOCTYPE svg PUBLIC "-//W3C//DTD SVG 1.1//EN" "http://www.w3.org/Graphics/SVG/1.1/DTD/svg11.dtd">
<svg version="1.1" id="Layer_1" xmlns="http://www.w3.org/2000/svg" xmlns:xlink="http://www.w3.org/1999/xlink" x="0px" y="0px"
	 viewBox="0 0 155.6 201.1" enable-background="new 0 0 155.6 201.1" xml:space="preserve">
<g id="uK0ttp_1_" opacity="7.000000e-02">
	<g>
		<g>
			<path fill="#8F191C" d="M25,0c0.2,0,0.4,0,0.5,0c4.1,6.6,8.2,13.3,12.5,20.1c13.1-7.4,26.9-9.5,41.7-8.2
				c0.3,4.8,0.7,9.4,0.9,14.1c0.1,5.3-2,7.8-7.1,8.9c-3.5,0.8-7.1,1.3-10.6,2.2c-3.8,1-7.5,2.2-11.6,3.4
				C60.5,55,69.3,68.9,78.3,82.9c1-0.4,1.9-0.7,2.8-1c8.9-3,17.8-6.4,27.3-7.2c10.3-0.9,20.2,0.8,28,7.9
				c15.7,14.4,22.3,32.1,17.7,53.3c-2.6,11.9-9.2,21.7-17.9,30.1c-3.6,3.5-3.3,2-0.7,6.3c2.3,3.7,4.7,7.3,7,10.9
				c2.7,4.3,1.8,8.5-2.1,11.7c-2.6,2.1-5.1,4.2-7.7,6.3c-0.2,0-0.4,0-0.5,0c-4.6-7.3-9.1-14.6-13.7-21.8
				c-19.4,11.1-41.9,13.5-51,10.8c-0.3-4.9-0.7-9.8-1-14.7c-0.4-6.5,2.8-10.2,9.3-10.7c4.1-0.4,8.3-0.6,12.4-1.1
				c5.8-0.7,11.5-1.9,16.5-5c-0.1-0.3,0-0.5-0.1-0.7c-9.3-14.5-18.5-29.1-27.8-43.5c-0.4-0.6-1.8-0.9-2.5-0.7
				c-3.7,1.1-7.3,2.6-11,3.8c-8.2,2.7-16.6,4.4-25.3,3.2c-15.9-2.2-26.4-11.8-33.2-25.6c-9-18.2-4.9-40.9,9.4-56.4
				c2.7-3,5.8-5.6,8.7-8.4c0-0.2,0-0.3-0.1-0.3c-2.5-4-5.1-8-7.6-12.1c-2.7-4.4-1.9-8.5,2.1-11.7C19.8,4.2,22.4,2.1,25,0z
				 M119.7,147.5c10.7-9.8,14.1-23.1,5.3-35.6c-6.4-9.2-17.5-11.2-31.4-5.1C102.3,120.3,111,133.8,119.7,147.5z M36.6,51.7
				c-4.8,4.6-8.7,9.6-10,15.9c-0.6,2.8-0.8,5.9-0.1,8.6c4.1,15.3,18.6,19.1,34,12.7C52.5,76.5,44.6,64.2,36.6,51.7z"/>
		</g>
	</g>
</g>
</svg>
