<?xml version="1.0" encoding="utf-8"?>
<!-- Generator: Adobe Illustrator 18.0.0, SVG Export Plug-In . SVG Version: 6.00 Build 0)  -->
<!DOCTYPE svg PUBLIC "-//W3C//DTD SVG 1.1//EN" "http://www.w3.org/Graphics/SVG/1.1/DTD/svg11.dtd">
<svg version="1.1" id="Layer_1" xmlns="http://www.w3.org/2000/svg" xmlns:xlink="http://www.w3.org/1999/xlink" x="0px" y="0px"
	 viewBox="180 86 368.7 366.9" enable-background="new 180 86 368.7 366.9" xml:space="preserve">
<g>
	<path fill="#FFFFFF" stroke="#FCFCFC" stroke-miterlimit="10" d="M304.8,125.1c-0.2-0.3-0.4-0.5-0.5-0.6
		c-5.6-5.6-11.9-11.9-23.5-11.9c-4.2,0-8.6,0.8-13.4,2.6c-8,2.8-22,12.7-34,27.8c-13,16.3-20.2,33.9-20.2,49.5c0,8.4,8.1,30,26,59.2
		c18.5,30,41.7,59.5,65.4,83.1c23.9,23.9,53.4,47.1,83.1,65.3c31.4,19.3,51.5,26.1,59.2,26.1c35.5,0,70.7-35.5,77.3-54.1
		c7.2-20.4-2.4-30-9.4-37l-0.4-0.4c-0.1-0.1-0.2-0.2-0.3-0.2L473.7,304c-5-4-11-6.2-16.9-6.2c-5.6,0-10.7,2-14.3,5.7L442,304
		l-29.5,33.3l-7.1-5.2c-13.9-10.1-34.4-26-53.3-44.9c-20.9-20.9-38.3-44.3-44.9-53.3l-5.1-7.1l33.7-29.9c10.9-10.9,5.8-23-0.4-31.3
		L304.8,125.1z"/>
</g>
</svg>
