<?xml version="1.0" encoding="utf-8"?>
<!-- Generator: Adobe Illustrator 18.0.0, SVG Export Plug-In . SVG Version: 6.00 Build 0)  -->
<!DOCTYPE svg PUBLIC "-//W3C//DTD SVG 1.1//EN" "http://www.w3.org/Graphics/SVG/1.1/DTD/svg11.dtd">
<svg version="1.1" id="Layer_1" xmlns="http://www.w3.org/2000/svg" xmlns:xlink="http://www.w3.org/1999/xlink" x="0px" y="0px"
	 viewBox="0 0 155.6 146.3" enable-background="new 0 0 155.6 146.3" xml:space="preserve">
<g>
	<path fill="#FFFFFF" d="M78.8,146.3c-40.3,0-73.2-32.8-73.2-73.2S38.5,0,78.8,0C119.2,0,152,32.8,152,73.2S119.2,146.3,78.8,146.3z
		 M78.8,6c-37,0-67.2,30.1-67.2,67.2c0,37,30.1,67.2,67.2,67.2S146,110.2,146,73.2C146,36.1,115.9,6,78.8,6z"/>
</g>
<g>
	<path fill="#FFFFFF" d="M110.6,122.5c-0.6,0-1.2-0.1-1.8-0.4L78.2,106l-30.6,16.1c-1.3,0.7-2.8,0.6-4-0.3c-1.2-0.8-1.8-2.3-1.5-3.7
		L48,84L23.2,59.9c-1-1-1.4-2.5-1-3.9c0.4-1.4,1.6-2.4,3.1-2.6l34.2-5l15.3-31c0.6-1.3,2-2.1,3.4-2.1c1.4,0,2.8,0.8,3.4,2.1l15.3,31
		l34.2,5c1.4,0.2,2.6,1.2,3.1,2.6c0.4,1.4,0.1,2.9-1,3.9L108.5,84l5.8,34.1c0.2,1.4-0.3,2.9-1.5,3.7
		C112.1,122.3,111.4,122.5,110.6,122.5z M34,59.8L54.7,80c0.9,0.9,1.3,2.1,1.1,3.4l-4.9,28.5l25.6-13.4c1.1-0.6,2.4-0.6,3.5,0
		l25.6,13.4l-4.9-28.5c-0.2-1.2,0.2-2.5,1.1-3.4l20.7-20.2l-28.6-4.2c-1.2-0.2-2.3-1-2.9-2.1L78.2,27.7L65.4,53.6
		c-0.6,1.1-1.6,1.9-2.9,2.1L34,59.8z"/>
</g>
</svg>
