<?xml version="1.0" encoding="utf-8"?>
<!-- Generator: Adobe Illustrator 18.0.0, SVG Export Plug-In . SVG Version: 6.00 Build 0)  -->
<!DOCTYPE svg PUBLIC "-//W3C//DTD SVG 1.1//EN" "http://www.w3.org/Graphics/SVG/1.1/DTD/svg11.dtd">
<svg version="1.1" id="Layer_1" xmlns="http://www.w3.org/2000/svg" xmlns:xlink="http://www.w3.org/1999/xlink" x="0px" y="0px"
	 viewBox="70 7.3 183.4 136.7" enable-background="new 70 7.3 183.4 136.7" xml:space="preserve">
<g>
	<path opacity="0.15" fill="#5F91AA" enable-background="new    " d="M77.3,19.8h99.8v78.8l-52.6,26.6L72.9,96.8v-76
		C72.9,20.8,76.7,20.4,77.3,19.8z"/>
	<path fill="#FFFFFF" d="M141.5,95h-32.4c-6.8,0-12.2-5.6-12.2-12.2V47.6c0-6.8,5.6-12.2,12.2-12.2h32.6c6.8,0,12.2,5.6,12.2,12.2
		v35C153.7,89.4,148.3,95,141.5,95z"/>
	<g>
		<path fill="#AF1F23" d="M164.9,28.6c-26,0-52,0-78,0c-1.2,0-2.2,0.6-2.8,1.2c-0.8,0.6-1.2,1.6-1.2,2.8c0,19,0,37.8,0,56.6
			c0,1.4,0.8,2.8,2,3.4c6.8,3.8,13.4,7.6,20.2,11.6c4.2,2.4,8.4,4.8,12.6,7.2c2.4,1.4,5.4,3.8,8.2,2.4c13.8-6.6,27.4-13.4,41.2-20
			c1.2-0.6,2-2.2,2-3.4c0-19.4,0-38.6,0-58C168.9,30.4,167.1,28.6,164.9,28.6z M148.9,82.4c0,0.6-0.4,1-1,1c-2.8,0-5.8,0-8.6,0
			c-0.6,0-1-0.4-1-1c0-8.2,0-16.2,0-24.4c-1.2,3.2-2.2,6.6-3.4,9.8c-1.8,5-3.4,10-5.2,15c-0.2,0.4-0.6,0.8-1,0.8c-2.2,0-4.4,0-6.6,0
			c-0.4,0-0.8-0.4-1-0.8c-1.6-5-3.2-10-5-15c-1-3.2-2-6.4-3-9.6c0,8,0,16.2,0,24.4c0,0.6-0.4,1-1,1c-2.8,0-5.8,0-8.6,0
			c-0.6,0-1-0.4-1-1c0-13,0-26,0-39c0-0.6,0.4-1,1-1c4.4,0,8.6,0,13.2,0c0.6,0,0.8,0.4,1,0.8c1.4,4.2,3,8.4,4.4,12.8
			c1,3,2,5.8,3,8.8c0.2,0.6,0.4,1,0.6,1.6c2.8-7.6,5.4-15.4,8.2-23c0.2-0.4,0.6-0.8,1-0.8c4.2,0,8.6,0,12.8,0c0.6,0,1,0.4,1,1
			C148.9,56.2,148.9,69.4,148.9,82.4z"/>
	</g>
	<g>
		<path fill="#023B5F" d="M123.5,128.2L123.5,128.2c-3,0-5.8-1.8-7.8-3c-0.6-0.4-1-0.6-1.4-1L74.1,101c-2.4-1.4-4-4-4-7V23.8
			c0-2.2,0.8-4.2,2.4-5.8c1.4-1.6,3.4-2.4,5.6-2.4h95.8c4.4,0,8,3.6,8,8v71.8c0,3-1.8,6-4.2,7.2l-50.4,24.8
			C126.1,128,124.7,128.2,123.5,128.2z M78.1,22.2c-0.8,0-1,0.2-1.2,0.4l-0.2,0.2c-0.2,0.2-0.4,0.4-0.4,1.2v70
			c0,0.6,0.4,1.2,0.8,1.4l40.2,23.2c0.6,0.4,1.2,0.6,1.6,1c1.6,1,3.2,2,4.6,2l0,0c0.4,0,0.6-0.2,1-0.2l50.4-24.6
			c0.2-0.2,0.6-0.8,0.6-1.4V23.8c0-1-0.8-1.8-1.8-1.8H78.1V22.2z"/>
	</g>
</g>
</svg>
