<?xml version="1.0" encoding="utf-8"?>
<!-- Generator: Adobe Illustrator 18.0.0, SVG Export Plug-In . SVG Version: 6.00 Build 0)  -->
<!DOCTYPE svg PUBLIC "-//W3C//DTD SVG 1.1//EN" "http://www.w3.org/Graphics/SVG/1.1/DTD/svg11.dtd">
<svg version="1.1" id="Layer_1" xmlns="http://www.w3.org/2000/svg" xmlns:xlink="http://www.w3.org/1999/xlink" x="0px" y="0px"
	 viewBox="0 -25.7 140.7 130" enable-background="new 0 -25.7 140.7 130" xml:space="preserve">
<g>
	<g opacity="0.15">
		<path fill="#5F91AA" d="M48.2,33.4C48.2,33.4,48.2,33.4,48.2,33.4c-8.9,0-17.9,0-26.8,0c-0.5,21.6,0,43.2,0,64.9
			c33.6,0.3,67.2,0.5,100.8,0c0.5-21.6,0.5-43.3,0-64.9c-7.9-0.1-15.8-0.1-23.7-0.1c0,0.1-0.1,0.1-0.1,0.2l-0.7,0.7L97,34.8
			c-0.2,0.1-0.4,0.2-0.6,0.2c-6,2.3-15.8,1.8-22.9,1.8c-7,0-17.5,0.4-23.2-2c0,0,0,0-0.1,0"/>
	</g>
	<g>
		<rect x="27" y="42.5" fill="none" width="89.6" height="51.3"/>
		<path fill="#023B5F" d="M122.1,34.5H21.6L21.2,39H19v56.4c0,3.5,2.8,6.4,6.1,6.4h93.3c3.4,0,6.1-2.9,6.1-6.4V39h-2.1L122.1,34.5z
			 M118.1,95.2H25.5V41h92.6V95.2z"/>
	</g>
	<g>
		<g>
			<g>
				<path fill="#023B5F" d="M18.8,23.9L124.4-1.6c0.6-0.1,1-0.9,0.9-1.5l-4.2-19c-0.2-0.7-0.8-1.1-1.5-1l-13.8,3.2l12.4,13.6
					l-15.6,3.6L90.2-16.2L74-12.4L86.4,1.2L70.8,4.8L58.4-8.8L42.2-5L54.6,8.6L39,12.3L26.6-1.3L13.4,1.8c-0.6,0.2-1.1,0.8-0.9,1.5
					l4.2,18.9C16.8,22.8,18.2,24,18.8,23.9z"/>
			</g>
		</g>
	</g>
	<g>
		<g>
			<g>
				<path fill="#023B5F" d="M17.9,42.5L127,40.4c0.6,0,1.2-0.7,1.2-1.3l-0.2-19.4c0-0.7-0.6-1.3-1.2-1.3l-14.2,0.3l9.2,15.9l-16,0.3
					L96.7,19L80,19.3l9.2,15.9l-16,0.3L64,19.6l-16.7,0.3l9.2,15.9l-14.8,0.3l-9.2-15.9l-14.8,0.3c-0.7,0-1.2,0.6-1.2,1.3l0.2,19.4
					C16.7,41.8,17.4,42.5,17.9,42.5z"/>
			</g>
		</g>
	</g>
	<path fill="#FFFFFF" d="M73.2,79.6H70c-6.6,0-12-5.4-12-12v-4c0-6.6,5.4-12,12-12h3.2c6.6,0,12,5.4,12,12v4
		C85.2,74.2,79.8,79.6,73.2,79.6z"/>
	<g>
		<path fill="#AF1F23" d="M88.2,50.7c-11,0-22,0-33.1,0c-0.5,0-0.9,0.2-1.2,0.5c-0.3,0.3-0.5,0.7-0.5,1.2c0,8,0,16,0,24
			c0,0.6,0.3,1.2,0.8,1.4c2.8,1.6,5.7,3.3,8.5,4.9c1.8,1,3.5,2,5.3,3.1c1,0.6,2.2,1.6,3.5,1c5.8-2.8,11.6-5.6,17.4-8.4
			c0.5-0.3,0.8-0.9,0.8-1.4c0-8.2,0-16.4,0-24.5C89.9,51.4,89.1,50.7,88.2,50.7z M81.4,73.5c0,0.2-0.2,0.4-0.4,0.4
			c-1.2,0-2.4,0-3.6,0c-0.2,0-0.4-0.2-0.4-0.4c0-3.5,0-6.9,0-10.4c-0.5,1.4-0.9,2.8-1.4,4.1c-0.7,2.1-1.5,4.2-2.2,6.3
			c-0.1,0.2-0.2,0.3-0.4,0.3c-0.9,0-1.8,0-2.8,0c-0.2,0-0.3-0.1-0.4-0.3c-0.7-2.1-1.4-4.2-2.1-6.4c-0.4-1.3-0.9-2.7-1.3-4
			c0,3.4,0,6.9,0,10.3c0,0.2-0.2,0.4-0.4,0.4c-1.2,0-2.4,0-3.6,0c-0.2,0-0.4-0.2-0.4-0.4c0-5.5,0-11,0-16.6c0-0.2,0.2-0.4,0.4-0.4
			c1.8,0,3.7,0,5.5,0c0.2,0,0.3,0.1,0.4,0.3c0.6,1.8,1.3,3.6,1.9,5.4c0.4,1.2,0.9,2.5,1.3,3.7c0.1,0.2,0.1,0.4,0.2,0.6
			c1.2-3.3,2.3-6.5,3.5-9.8c0.1-0.2,0.2-0.3,0.4-0.3c1.8,0,3.7,0,5.5,0c0.2,0,0.4,0.2,0.4,0.4C81.4,62.4,81.4,67.9,81.4,73.5z"/>
	</g>
	<circle fill="#FFFFFF" cx="24.1" cy="20.7" r="2.4"/>
</g>
</svg>
