<?xml version="1.0" encoding="utf-8"?>
<!-- Generator: Adobe Illustrator 18.0.0, SVG Export Plug-In . SVG Version: 6.00 Build 0)  -->
<!DOCTYPE svg PUBLIC "-//W3C//DTD SVG 1.1//EN" "http://www.w3.org/Graphics/SVG/1.1/DTD/svg11.dtd">
<svg version="1.1" id="Layer_1" xmlns="http://www.w3.org/2000/svg" xmlns:xlink="http://www.w3.org/1999/xlink" x="0px" y="0px"
	 viewBox="0 -25.7 140.7 130" enable-background="new 0 -25.7 140.7 130" xml:space="preserve">
<g>
	<path opacity="0.15" fill="#5F91AA" d="M22.8-11.7h97.5v77L69,91.3L18.5,63.5v-74.2C18.5-10.7,22.2-11.1,22.8-11.7z"/>
	<path fill="#FFFFFF" d="M85.5,61.8H53.8c-6.6,0-12-5.4-12-12V15.5c0-6.6,5.4-12,12-12h31.8c6.6,0,12,5.4,12,12v34.2
		C97.5,56.4,92.1,61.8,85.5,61.8z"/>
	<g>
		<path fill="#AF1F23" d="M108.4-3.1c-25.4,0-50.9,0-76.3,0c-1.2,0-2.1,0.5-2.7,1.1c-0.7,0.6-1.1,1.5-1.1,2.7c0,18.5,0,36.9,0,55.4
			c0,1.4,0.7,2.7,1.9,3.3c6.6,3.8,13.1,7.5,19.7,11.3c4.1,2.3,8.2,4.7,12.3,7c2.4,1.4,5.2,3.7,8,2.3c13.4-6.5,26.8-13,40.2-19.5
			c1.2-0.6,1.9-2.1,1.9-3.3c0-18.9,0-37.7,0-56.6C112.3-1.3,110.5-3.1,108.4-3.1z M92.7,49.5c0,0.5-0.4,1-1,1c-2.8,0-5.6,0-8.4,0
			c-0.5,0-1-0.4-1-1c0-8,0-15.9,0-23.9c-1.1,3.2-2.2,6.4-3.3,9.5c-1.7,4.9-3.3,9.7-5,14.6c-0.1,0.4-0.5,0.7-0.9,0.7
			c-2.1,0-4.3,0-6.4,0c-0.4,0-0.8-0.3-0.9-0.7c-1.6-4.9-3.2-9.8-4.8-14.7c-1-3.1-2-6.2-3-9.3c0,7.9,0,15.9,0,23.8c0,0.5-0.4,1-1,1
			c-2.8,0-5.6,0-8.4,0c-0.5,0-1-0.4-1-1c0-12.7,0-25.5,0-38.2c0-0.5,0.4-1,1-1c4.3,0,8.5,0,12.8,0c0.5,0,0.8,0.3,0.9,0.7
			c1.4,4.2,2.9,8.3,4.3,12.5c1,2.9,2,5.7,3,8.6c0.2,0.5,0.3,1,0.5,1.5c2.7-7.5,5.3-15,8-22.5c0.1-0.4,0.5-0.7,0.9-0.7
			c4.2,0,8.4,0,12.6,0c0.5,0,1,0.4,1,1C92.7,24,92.7,36.8,92.7,49.5z"/>
	</g>
	<g>
		<path fill="#023B5F" d="M68,94.3L68,94.3c-3,0-5.6-1.7-7.7-3c-0.5-0.3-0.9-0.6-1.4-0.9L19.6,67.7c-2.4-1.4-3.9-4-3.9-6.9V-7.7
			c0-2.2,0.8-4.2,2.3-5.6c1.4-1.5,3.4-2.3,5.5-2.3h93.7c4.3,0,7.8,3.6,7.8,7.9v70.1c0,2.9-1.7,5.8-4.1,7L71.6,93.5
			C70.4,94,69.2,94.3,68,94.3z M23.5-9.4c-0.7,0-0.9,0.2-1.1,0.4l-0.2,0.2c-0.2,0.2-0.4,0.4-0.4,1.1v68.6c0,0.6,0.3,1.1,0.8,1.4
			L61.9,85c0.5,0.3,1.1,0.6,1.6,1c1.6,1,3.2,2,4.5,2l0,0c0.3,0,0.6-0.1,0.9-0.2l49.3-24.1c0.2-0.1,0.6-0.8,0.6-1.3V-7.7
			c0-0.9-0.8-1.7-1.7-1.7H23.5z"/>
	</g>
</g>
</svg>
