<?xml version="1.0" encoding="utf-8"?>
<!-- Generator: Adobe Illustrator 18.0.0, SVG Export Plug-In . SVG Version: 6.00 Build 0)  -->
<!DOCTYPE svg PUBLIC "-//W3C//DTD SVG 1.1//EN" "http://www.w3.org/Graphics/SVG/1.1/DTD/svg11.dtd">
<svg version="1.1" id="Layer_1" xmlns="http://www.w3.org/2000/svg" xmlns:xlink="http://www.w3.org/1999/xlink" x="0px" y="0px"
	 viewBox="0 -25.7 140.7 130" enable-background="new 0 -25.7 140.7 130" xml:space="preserve">
<g>
	<polygon fill="#FFFFFF" points="50.2,-14.4 97.1,-14.4 136.3,21.6 128.4,65.9 90.2,89.4 23.7,90.3 17.1,89.6 21.5,77.2 2.4,40.7 
		12.4,8.2 	"/>
	<path opacity="0.15" fill="#5F91AA" d="M45.8-16.2l33.3-0.7l29.3,10l21.3,17.3l7.3,25.3l-7.3,26.7l-28,22.7l-37.3,6
		c0,0-21.3-5.3-23.3-5.3s-23.3,8-23.3,8l5.3-20.7l-8-9.3L1.8,36.5L18.4,5.1L45.8-16.2z"/>
	<path fill="#FFFFFF" stroke="#023B5F" stroke-width="5" stroke-miterlimit="10" d="M71.7,1.9c-10.4,0-18.1,4.6-23.6,14
		c-0.8,1.3-0.5,3,0.7,4l8.1,6.4c0.6,0.4,1.1,0.6,1.7,0.6c0.8,0,1.7-0.5,2.3-1.2c2.9-3.8,4-4.9,5.1-5.6c0.9-0.6,2.8-1.3,4.8-1.3
		c3.5,0,6.6,2.1,6.6,4.4c0,2.7-1.2,4.1-4.8,5.8c-4.3,2-10.8,7.5-10.8,14.3v2.3c0,1.6,1,3.8,2.7,3.8h11.8c1.7,0,2.9-1.8,2.9-3.4
		c0-1.1,1.7-4.3,4.2-5.9C88.1,37.5,95,33.5,95,23.2C95,11,82.7,1.9,71.7,1.9z"/>
	<g>
		<path fill="#023B5F" stroke="#023B5F" stroke-width="0.5" stroke-miterlimit="10" d="M15.7,99L15.7,99c-1.2,0-2.4-0.5-3.2-1.4
			c-1.2-1.3-1.5-3.1-0.8-4.7l2.1-4.8c1.8-4,3.5-7.9,5.3-11.7C12.9,70.7,8.1,64.2,5,56.9c-5.5-12.8-5.6-25.6-0.3-38.2
			C9.9,5.8,19.3-4,33.1-11.4c13-6.9,27.7-9.9,43.4-8.8c14,1,26.6,5.2,37.4,12.5c13.5,9.1,21.8,20.9,24.9,35.2
			c2.4,11.5,0.7,22.7-5.1,33.3c-7.8,14.3-20.2,24.1-37.7,30C88,93.6,79.4,95,70.6,95l-0.3,0c-2.6,0-5.4-0.1-8.1-0.4
			c-7-0.6-14.1-2.3-21.2-4.9C35.5,91.8,29.9,94,24.5,96l-5.4,2.1c-0.3,0.1-0.7,0.2-1.1,0.4l-0.8,0.3C16.7,99,16.2,99,15.7,99z
			 M70.3-13.4c-12.2,0-23.6,2.8-33.9,8.2C24,1.3,15.7,10,11,21.3c-4.5,10.8-4.4,21.9,0.3,32.8c2.9,6.8,7.5,12.8,13.6,18
			c1.8,1.6,2.3,3.5,1.3,5.7c-1.9,4.1-3.6,8-5.5,12.2l1.3-0.5c5.5-2.1,11.2-4.3,16.9-6.4c0.8-0.3,1.7-0.4,2.2-0.4
			c0.5,0,1.4,0.1,2.2,0.4c6.6,2.5,13.2,4,19.6,4.6c2.5,0.2,5,0.3,7.4,0.3l0.3,0c8.1,0,15.8-1.3,23.1-3.8
			c15.8-5.4,26.9-14.1,33.9-26.8c5-9.1,6.5-18.7,4.4-28.5c-2.6-12.4-10-22.8-22-30.9c-9.9-6.6-21.3-10.5-34-11.3
			C74.1-13.4,72.2-13.4,70.3-13.4z"/>
	</g>
	<path fill="#FFFFFF" stroke="#023B5F" stroke-width="4.5" stroke-miterlimit="10" d="M70.4,73.1L70.4,73.1c-4.5,0-8.3-3.7-8.3-8.3
		v0c0-4.5,3.7-8.3,8.3-8.3h0c4.5,0,8.3,3.7,8.3,8.3v0C78.7,69.4,75,73.1,70.4,73.1z"/>
</g>
</svg>
