<?xml version="1.0" encoding="utf-8"?>
<!-- Generator: Adobe Illustrator 18.0.0, SVG Export Plug-In . SVG Version: 6.00 Build 0)  -->
<!DOCTYPE svg PUBLIC "-//W3C//DTD SVG 1.1//EN" "http://www.w3.org/Graphics/SVG/1.1/DTD/svg11.dtd">
<svg version="1.1" id="Layer_1" xmlns="http://www.w3.org/2000/svg" xmlns:xlink="http://www.w3.org/1999/xlink" x="0px" y="0px"
	 viewBox="7.7 0 64.3 72" enable-background="new 7.7 0 64.3 72" xml:space="preserve">
<g>
	<path opacity="0.15" fill="#5F91AA" enable-background="new    " d="M11.3,9.9h49.9v39.4L34.9,62.6L9.1,48.4v-38
		C9.1,10.4,11,10.2,11.3,9.9z"/>
	<path fill="#FFFFFF" d="M43.4,47.5H27.2c-3.4,0-6.1-2.8-6.1-6.1V23.8c0-3.4,2.8-6.1,6.1-6.1h16.3c3.4,0,6.1,2.8,6.1,6.1v17.5
		C49.5,44.7,46.8,47.5,43.4,47.5z"/>
	<g>
		<path fill="#AF1F23" d="M55.1,14.3c-13,0-26,0-39,0c-0.6,0-1.1,0.3-1.4,0.6c-0.4,0.3-0.6,0.8-0.6,1.4c0,9.5,0,18.9,0,28.3
			c0,0.7,0.4,1.4,1,1.7c3.4,1.9,6.7,3.8,10.1,5.8c2.1,1.2,4.2,2.4,6.3,3.6c1.2,0.7,2.7,1.9,4.1,1.2c6.9-3.3,13.7-6.7,20.6-10
			c0.6-0.3,1-1.1,1-1.7c0-9.7,0-19.3,0-29C57.1,15.2,56.2,14.3,55.1,14.3z M47.1,41.2c0,0.3-0.2,0.5-0.5,0.5c-1.4,0-2.9,0-4.3,0
			c-0.3,0-0.5-0.2-0.5-0.5c0-4.1,0-8.1,0-12.2c-0.6,1.6-1.1,3.3-1.7,4.9c-0.9,2.5-1.7,5-2.6,7.5c-0.1,0.2-0.3,0.4-0.5,0.4
			c-1.1,0-2.2,0-3.3,0c-0.2,0-0.4-0.2-0.5-0.4c-0.8-2.5-1.6-5-2.5-7.5c-0.5-1.6-1-3.2-1.5-4.8c0,4,0,8.1,0,12.2
			c0,0.3-0.2,0.5-0.5,0.5c-1.4,0-2.9,0-4.3,0c-0.3,0-0.5-0.2-0.5-0.5c0-6.5,0-13,0-19.5c0-0.3,0.2-0.5,0.5-0.5c2.2,0,4.3,0,6.6,0
			c0.3,0,0.4,0.2,0.5,0.4c0.7,2.1,1.5,4.2,2.2,6.4c0.5,1.5,1,2.9,1.5,4.4c0.1,0.3,0.2,0.5,0.3,0.8c1.4-3.8,2.7-7.7,4.1-11.5
			c0.1-0.2,0.3-0.4,0.5-0.4c2.1,0,4.3,0,6.4,0c0.3,0,0.5,0.2,0.5,0.5C47.1,28.1,47.1,34.7,47.1,41.2z"/>
	</g>
	<g>
		<path fill="#023B5F" d="M34.4,64.1L34.4,64.1c-1.5,0-2.9-0.9-3.9-1.5c-0.3-0.2-0.5-0.3-0.7-0.5L9.7,50.5c-1.2-0.7-2-2-2-3.5V11.9
			c0-1.1,0.4-2.1,1.2-2.9c0.7-0.8,1.7-1.2,2.8-1.2h47.9c2.2,0,4,1.8,4,4v35.9c0,1.5-0.9,3-2.1,3.6L36.3,63.7
			C35.7,64,35,64.1,34.4,64.1z M11.7,11.1c-0.4,0-0.5,0.1-0.6,0.2L11,11.4c-0.1,0.1-0.2,0.2-0.2,0.6V47c0,0.3,0.2,0.6,0.4,0.7
			l20.1,11.6c0.3,0.2,0.6,0.3,0.8,0.5c0.8,0.5,1.6,1,2.3,1l0,0c0.2,0,0.3-0.1,0.5-0.1l25.2-12.3c0.1-0.1,0.3-0.4,0.3-0.7V11.9
			c0-0.5-0.4-0.9-0.9-0.9H11.7z"/>
	</g>
</g>
</svg>
