<?xml version="1.0" encoding="utf-8"?>
<!-- Generator: Adobe Illustrator 18.0.0, SVG Export Plug-In . SVG Version: 6.00 Build 0)  -->
<!DOCTYPE svg PUBLIC "-//W3C//DTD SVG 1.1//EN" "http://www.w3.org/Graphics/SVG/1.1/DTD/svg11.dtd">
<svg version="1.1" id="Layer_1" xmlns="http://www.w3.org/2000/svg" xmlns:xlink="http://www.w3.org/1999/xlink" x="0px" y="0px"
	 viewBox="0 0 200 200" enable-background="new 0 0 200 200" xml:space="preserve">
<circle fill="none" stroke="#A1A0A0" stroke-width="8" stroke-miterlimit="10" cx="100" cy="100" r="93.5"/>
<g>
	<path fill="#A1A0A0" d="M149.4,118.8c-0.1-0.1-0.3-0.2-0.4-0.4l-12.5-9.5c-2-1.5-4.3-2.4-6.6-2.4c-2.3,0-4.4,0.9-6,2.4
		c0,0.1-0.1,0.1-0.2,0.2l-7.9,9l-0.6-0.5c-4.3-3.1-10.6-8-16.3-13.7c-6-6-11.2-12.8-13.7-16.3l-0.5-0.6l9-7.9
		c0.1-0.1,0.1-0.1,0.2-0.2c3.4-3.4,3.4-8.1,0.1-12.5l-9.5-12.6c-0.1-0.1-0.2-0.3-0.3-0.4c-1.8-1.8-4.3-4.3-8.8-4.3
		c-1.5,0-3.1,0.3-4.9,0.9c-6.4,2.2-18.3,13.8-18.3,26c0,7.6,13,29.7,29.1,45.8c16.1,16.1,38.2,29.1,45.8,29.1h0
		c12.2,0,23.8-11.8,26.1-18.3C155.5,124.9,151.7,121,149.4,118.8z M145.7,130c-1.2,3.4-10.2,13.2-18.8,13.2
		c-3.7-0.2-23.2-9.7-40.4-26.9c-9.2-9.2-15.8-18.7-19.7-25.1c-4.1-6.7-7.1-13.1-7.2-15.3c0-8.7,9.8-17.7,13.2-18.9
		c0.9-0.3,1.7-0.5,2.4-0.5c1.2,0,1.8,0.5,3.2,1.9l0.1,0.1l9.3,12.4c0.6,0.7,0.8,1.2,0.9,1.5l0.2,0.6L77,83.4c-1.4,1.3-1.7,3.4-0.6,5
		c0.8,1.2,7.8,11.7,17.1,20.9c9.1,9.1,19.7,16.3,20.9,17.1c1.5,1,3.8,0.7,5-0.7l10.3-11.6l0.4,0c0.3,0,1,0.2,1.9,0.9l12.4,9.4
		C146.2,126.4,146.6,127.2,145.7,130z"/>
</g>
</svg>
