<?xml version="1.0" encoding="utf-8"?>
<!-- Generator: Adobe Illustrator 18.0.0, SVG Export Plug-In . SVG Version: 6.00 Build 0)  -->
<!DOCTYPE svg PUBLIC "-//W3C//DTD SVG 1.1//EN" "http://www.w3.org/Graphics/SVG/1.1/DTD/svg11.dtd">
<svg version="1.1" id="Layer_1" xmlns="http://www.w3.org/2000/svg" xmlns:xlink="http://www.w3.org/1999/xlink" x="0px" y="0px"
	 viewBox="0 0 200 200" enable-background="new 0 0 200 200" xml:space="preserve">
<circle fill="none" stroke="#513C5F" stroke-width="8" stroke-miterlimit="10" cx="100" cy="100" r="93.5"/>
<path fill="#513C5F" d="M148.8,72.9h-7.2v-16c0-1.4-0.9-2.7-2.3-3.1c-0.2-0.1-2.3-0.6-6-0.6c-3.6,0-9.6,0.6-17.1,3.3
	c-5.3,2-12.5,6.4-16.6,11c-4.1-4.6-11.2-9-16.6-11c-7.5-2.8-13.5-3.3-17.1-3.3c-3.6,0-5.7,0.6-6,0.6c-1.4,0.4-2.3,1.6-2.3,3.1v16
	h-6.6c-4.2,0-7.6,3.4-7.6,7.6v51.9c0,3.9,2.9,6.8,6.6,6.8c0.5,0,1-0.1,1.5-0.2c0.1,0,8.8-1.8,18-1.8c7.1,0,12.7,1.1,16.2,3.1
	c1.6,0.9,2.3,1.5,2.5,1.7c1.8,2.4,5.2,4.8,8.4,4.8h6.7c3.2,0,6.6-2.4,8.4-4.8c0.2-0.2,0.8-0.7,2.5-1.7c3.5-2,9.1-3.1,16.2-3.1
	c9.2,0,17.9,1.8,18,1.8c0.5,0.1,1,0.2,1.5,0.2c0,0,0,0,0,0c1.8,0,3.5-0.7,4.8-2c1.2-1.3,1.9-3,1.9-4.8V80.5
	C156.4,76.3,153,72.9,148.8,72.9z M102.9,74c0.5-2.1,8-8.6,15.6-11.4c6.7-2.4,11.8-3,14.9-3c0.7,0,1.4,0,1.9,0.1v58
	c-3.6,0.2-9.9,0.9-18.5,3.4c-6,1.8-10.7,4.6-13.9,7V74z M64.1,59.6c0.5,0,1.2-0.1,1.9-0.1c3.1,0,8.2,0.5,14.9,3
	c7.6,2.8,15.1,9.4,15.6,11.3v54.2c-3.2-2.3-7.9-5.2-13.9-7c-8.7-2.6-14.9-3.3-18.5-3.4V59.6z M150.1,132.4c0,0.2-0.1,0.3-0.1,0.4
	c0,0-0.1,0-0.2,0c-0.1,0-0.1,0-0.2,0c-0.4-0.1-9.4-1.9-19.3-1.9c-8.3,0-14.8,1.3-19.3,3.9c-2.9,1.7-4,2.8-4.4,3.4
	c-0.9,1.3-2.7,2.3-3.3,2.3h-6.7c-0.6,0-2.3-0.9-3.3-2.3c-0.4-0.5-1.5-1.7-4.4-3.4c-4.5-2.6-11-3.9-19.3-3.9
	c-9.9,0-18.9,1.8-19.3,1.9c-0.3,0.1-0.5,0.2-0.5-0.4V80.5c0-0.7,0.6-1.2,1.2-1.2h6.6v41.6c0,0.9,0.4,1.7,1,2.3
	c0.7,0.6,1.5,0.9,2.4,0.8c0.1,0,0.5,0,1.2,0c2.3,0,8.6,0.3,18.4,3.2c7.2,2.2,12.2,6.1,14.9,8.3c1.4,1.1,2.2,1.7,3.2,2
	c0.2,0.1,0.5,0.1,0.8,0.1c0.3,0,0.5,0,0.8-0.1c1-0.2,1.8-0.9,3.2-2c2.7-2.1,7.6-6.1,14.9-8.3c9.8-2.9,16.1-3.2,18.4-3.2
	c0.7,0,1.1,0,1.2,0c0.9,0.1,1.8-0.2,2.4-0.8c0.7-0.6,1-1.5,1-2.4V79.2h7.2c0.7,0,1.2,0.6,1.2,1.2V132.4z"/>
</svg>
