<?xml version="1.0" encoding="utf-8"?>
<!-- Generator: Adobe Illustrator 18.0.0, SVG Export Plug-In . SVG Version: 6.00 Build 0)  -->
<!DOCTYPE svg PUBLIC "-//W3C//DTD SVG 1.1//EN" "http://www.w3.org/Graphics/SVG/1.1/DTD/svg11.dtd">
<svg version="1.1" id="Layer_1" xmlns="http://www.w3.org/2000/svg" xmlns:xlink="http://www.w3.org/1999/xlink" x="0px" y="0px"
	 viewBox="0 0 200 200" enable-background="new 0 0 200 200" xml:space="preserve">
<circle fill="none" stroke="#A1A0A0" stroke-width="8" stroke-miterlimit="10" cx="100" cy="100" r="93.5"/>
<path fill="#A1A0A0" d="M131.2,89.8l-0.4-0.1c-1.6-0.6-2.3-1.2-2.5-1.6c0-0.1-0.1-0.6,0.4-1.6c0.1-0.1,0.3-0.2,0.4-0.4
	c4.3-4.4,8.3-16.4,4.6-25c-2.4-5.6-7.6-8.7-14.7-8.7c-7.1,0-12.3,3.1-14.7,8.7c-3.6,8.7,0.3,20.6,4.6,25c0.1,0.1,0.2,0.2,0.4,0.4
	c0.6,1,0.5,1.5,0.4,1.6c-0.1,0.4-0.9,1.1-2.6,1.7l-0.3,0.1c-9.8,1.9-24.6,4.7-25,28.7c0,1.7,1.3,3.1,3,3.1c1.7,0,3.1-1.3,3.1-3
	c0.3-19,10.3-20.9,20-22.8l0.7-0.1c0.3-0.1,0.5-0.1,0.7-0.2c3.3-1.2,5.3-3,6.1-5.4c0.5-1.6,0.8-4.1-1.3-7.3
	c-0.1-0.2-0.3-0.4-0.5-0.6l-0.1-0.1c-0.1-0.1-0.2-0.2-0.3-0.3c-3.1-3.1-5.8-12.6-3.4-18.4c1.4-3.4,4.4-5,9.1-5c4.7,0,7.6,1.6,9.1,5
	c2.4,5.8-0.3,15.2-3.4,18.4c-0.1,0.1-0.2,0.2-0.4,0.4c-0.2,0.2-0.4,0.4-0.6,0.6c-2,3.2-1.8,5.7-1.3,7.3c0.8,2.4,3,4.3,6.4,5.5
	c0.1,0,0.3,0.1,0.4,0.1l0.6,0.1c9.9,1.9,20.2,3.8,20.2,23.5c0,0.5-0.1,1.4-1.1,2.4c-4.7,4.5-20.8,5.7-30,5.4c0,0-0.8,0-2.1,0
	c-8.5,0-13.8,4.7-16.9,9.6c-3.1-5-8.7-9.8-17.5-9.8c-0.1,0-0.1,0-0.2,0c-4.3,0.2-7.5,0.2-7.5,0.2c-0.1,0-0.1,0-0.2,0
	c-7.2,0.4-20.2-0.4-24.1-4.2c-0.9-0.8-1-1.6-1-2.1c0-13.2,5.3-20.4,16.7-22.6c0.3,0,0.5-0.1,0.7-0.2c3.1-1.1,4.9-2.9,5.6-5.3
	c0.2-0.9,0-1.9-0.5-2.6c-0.6-0.7-1.5-1.2-2.4-1.2c-5.6,0-9.1-0.7-11.1-1.5c3.1-1.9,6.8-6,6.8-16.6c0-3.1,0.8-5.5,2.5-7.1
	c2.7-2.6,7-2.5,7-2.5c0.1,0,0.2,0,0.3,0c0,0,4.5-0.1,7.2,2.6c1.6,1.6,2.3,3.9,2.2,7c0,7.9,2.6,12.6,5.7,15.4
	c-2.1,1.4-5.3,2.9-9.4,2.9c-1.7,0-3.1,1.4-3.1,3.1c0,1.7,1.4,3.1,3.1,3.1c10.3,0,16.4-7,16.7-7.3c0.6-0.7,0.9-1.7,0.7-2.6
	c-0.2-0.9-0.8-1.7-1.6-2.1c-3.9-2-5.9-6.1-5.9-12.3c0.1-4.8-1.3-8.7-4.1-11.5C82.2,55.3,76,55.2,75,55.2c-1,0-7,0-11.3,4.2
	c-2.9,2.8-4.4,6.7-4.4,11.5c0,9.9-3.4,11.3-5.6,12.2c-1.3,0.5-3.6,1.5-3.6,4.3c0,0.4,0.1,0.9,0.3,1.3c0.5,1.1,2.3,3.9,8.9,5.4
	c-10.2,4.2-15.6,13.3-15.6,26.9c0,2.5,1,4.8,2.9,6.6c7.1,6.7,26,6,28.6,5.9c0.6,0,3.7,0,7.7-0.2c11.6,0.1,14.3,11.7,14.5,12.1
	c0.3,1.4,1.6,2.4,3,2.4c0,0,0,0,0,0c1.4,0,2.7-1,3-2.5c0,0,0.7-3.1,2.7-6.1c2.7-3.9,6.4-5.9,11-5.9c1.3,0,2.1,0,2.1,0
	c2.7,0.1,26.2,0.7,34.3-7.1c2-1.9,3-4.2,3-6.8C156.4,94.6,141.2,91.7,131.2,89.8z"/>
</svg>
