<?xml version="1.0" encoding="utf-8"?>
<!-- Generator: Adobe Illustrator 18.0.0, SVG Export Plug-In . SVG Version: 6.00 Build 0)  -->
<!DOCTYPE svg PUBLIC "-//W3C//DTD SVG 1.1//EN" "http://www.w3.org/Graphics/SVG/1.1/DTD/svg11.dtd">
<svg version="1.1" id="Layer_1" xmlns="http://www.w3.org/2000/svg" xmlns:xlink="http://www.w3.org/1999/xlink" x="0px" y="0px"
	 viewBox="0 0 200 200" enable-background="new 0 0 200 200" xml:space="preserve">
<circle fill="none" stroke="#143B63" stroke-width="8" stroke-miterlimit="10" cx="100" cy="100" r="93.5"/>
<path fill="#143B63" d="M140.5,60.5h-81C52.6,60.5,47,66.1,47,73v54c0,6.9,5.6,12.5,12.5,12.5h81c6.9,0,12.5-5.6,12.5-12.5V73
	C153,66.1,147.4,60.5,140.5,60.5z M123.7,100l22.5-22.5v45.1L123.7,100z M59.5,67.2h81c2.3,0,4.3,1.4,5.2,3.4l-1.1-1.1l-36.3,36.3
	c-4.6,4.6-12.1,4.6-16.7,0L55.1,69.3C56.2,68.1,57.7,67.2,59.5,67.2z M76.3,100l-22.5,22.5v-45L76.3,100z M140.5,132.8h-81
	c-1.8,0-3.3-0.8-4.4-2.1l25.9-26l5.9,5.9c3.6,3.6,8.4,5.4,13.1,5.4c4.8,0,9.5-1.8,13.1-5.4l5.9-5.9l25.9,25.9
	C143.8,131.9,142.3,132.8,140.5,132.8z"/>
</svg>
