<?xml version="1.0" encoding="utf-8"?>
<!-- Generator: Adobe Illustrator 18.0.0, SVG Export Plug-In . SVG Version: 6.00 Build 0)  -->
<!DOCTYPE svg PUBLIC "-//W3C//DTD SVG 1.1//EN" "http://www.w3.org/Graphics/SVG/1.1/DTD/svg11.dtd">
<svg version="1.1" id="Layer_1" xmlns="http://www.w3.org/2000/svg" xmlns:xlink="http://www.w3.org/1999/xlink" x="0px" y="0px"
	 viewBox="0 0 200 200" enable-background="new 0 0 200 200" xml:space="preserve">
<circle fill="none" stroke="#A1A0A0" stroke-width="8" stroke-miterlimit="10" cx="100" cy="100" r="93.5"/>
<path fill="#A1A0A0" d="M143.4,47.7c-4-2.8-8.8-3.2-13.7-1.4c0,0,0,0,0,0l0,0c0,0,0,0,0,0l0,0L66.9,69.5c-3.7,1.4-7.2,4.2-9.8,7.9
	c-7.7,1.5-13.8,9.6-13.8,18.5v2.4c0,8.9,6.1,17,13.7,18.5c2.6,3.7,6.1,6.6,9.9,8l4.2,1.5c-0.5,9.5,5.9,17.5,13,20.8
	c0.1,0,0.2,0.1,0.3,0.1l16.6,6.2c1.4,0.5,4.3,1.4,6.7,1.4c0.1,0,0.3,0,0.4,0c6.4-0.3,10.9-5,12.7-10.3l8.6,3.2
	c1.9,1,3.9,1.5,5.9,1.5c2.1,0,4.2-0.6,6.2-1.7c9.8-5.6,15.2-23.5,15.2-50.4C156.7,70.4,152.2,53.8,143.4,47.7z M125.6,110.3
	c-0.4-4.3-0.7-8.8-0.7-13.2c0-4.6,0.2-9,0.6-13.3l6.2,3c1.3,0.6,2.8,2.9,2.8,4.9v10.8c0,2-1.5,4.3-2.8,4.9L125.6,110.3z
	 M107.7,147.3c-0.9,0-2.9-0.4-4.1-0.9l-16.5-6.2c-3.9-1.9-7.6-6.1-8.4-11.2l35.1,12.9C112.9,144.7,110.7,147.2,107.7,147.3z
	 M69.5,117.8c-2.7-1-5.3-3.4-7.1-6.4c-0.6-1.1-1.9-1.8-3.1-1.8c-0.1,0-0.3,0-0.4,0c-4.4-0.6-8.1-5.8-8.1-11.3v-2.4
	c0-5.5,3.7-10.7,8.1-11.3c0.2,0,0.3,0,0.5,0c1.2-0.1,2.4-0.7,3-1.8c1.8-2.9,4.4-5.3,7.1-6.3l54.2-20c-4,10.8-6.2,25.2-6.2,40.6
	c0,5.5,0.3,11.1,0.9,16.5c0.2,1.4,0.3,2.8,0.5,4.2l0.1,0.5c0.2,1.2,0.4,2.5,0.6,3.6l0.2,1.2c0.2,1.1,0.4,2.2,0.7,3.3l0.2,0.8
	c0.3,1.3,0.6,2.5,0.9,3.7l0.3,1.1c0.3,1,0.5,1.9,0.9,2.8l0.3,0.9c0.2,0.6,0.4,1.3,0.7,1.9L69.5,117.8z M137.8,141
	c-1.4,0.8-2.8,0.9-4.3,0.3c-0.2-0.4-0.5-0.9-0.7-1.3l-0.4-0.8c-0.3-0.7-0.7-1.5-1-2.3l-0.2-0.5c-0.4-1-0.8-2-1.1-3l-0.3-0.9
	c-0.3-0.8-0.5-1.7-0.8-2.6l-0.3-1c-0.3-1.1-0.6-2.3-0.9-3.4l-0.2-0.7c-0.2-1-0.4-2-0.7-3.2l-0.2-1c-0.2-0.8-0.3-1.7-0.4-2.5l8.5-4
	c4-1.9,7-6.9,7-11.6V91.6c0-4.7-3-9.7-7-11.6l-8.5-4c1.4-9.2,3.8-17.2,6.9-23c2.1-0.5,4-0.2,5.7,0.9c3,2.1,10.1,10.5,10.1,43.2
	C149.2,124.7,143.3,137.9,137.8,141z"/>
</svg>
