<?xml version="1.0" encoding="utf-8"?>
<!-- Generator: Adobe Illustrator 18.0.0, SVG Export Plug-In . SVG Version: 6.00 Build 0)  -->
<!DOCTYPE svg PUBLIC "-//W3C//DTD SVG 1.1//EN" "http://www.w3.org/Graphics/SVG/1.1/DTD/svg11.dtd">
<svg version="1.1" id="Layer_1" xmlns="http://www.w3.org/2000/svg" xmlns:xlink="http://www.w3.org/1999/xlink" x="0px" y="0px"
	 viewBox="0 0 200 200" enable-background="new 0 0 200 200" xml:space="preserve">
<circle fill="none" stroke="#A1A0A0" stroke-width="8" stroke-miterlimit="10" cx="100" cy="100" r="93.5"/>
<path fill="#A1A0A0" d="M123.5,111.9L142.7,98c5.2-3.8,5.5-7.1,4.9-9.2c-0.7-2.1-2.8-4.6-9.3-4.6h-23.7l-3.3-10.2c0,0,0-0.1,0-0.1
	l-4-12.3c-2-6.2-5-7.5-7.2-7.5c-2.2,0-5.2,1.3-7.2,7.5l-4,12.3c0,0,0,0,0,0.1l-3.3,10.2H61.7c-6.5,0-8.6,2.5-9.3,4.6
	c-0.7,2.1-0.4,5.4,4.9,9.2l19.2,13.9l-7.3,22.6c-1.3,4-1.2,7.1,0.3,9.1c1,1.4,2.6,2.2,4.5,2.2c2,0,4.3-0.9,6.9-2.8L100,129
	l19.2,13.9c2.6,1.9,4.9,2.8,6.9,2.8c1.9,0,3.4-0.8,4.5-2.2c1.5-2,1.6-5.1,0.3-9.1L123.5,111.9z M123.1,137.6l-21.1-15.3
	c-0.4-0.3-0.8-0.4-1.2-0.5c-0.9-0.2-1.9,0-2.7,0.5l-21.1,15.3c-0.9,0.6-1.6,1-2.1,1.3c0.1-0.6,0.2-1.3,0.6-2.4l4-12.3
	c0,0,0-0.1,0-0.1l4-12.4c0.2-0.5,0.2-1.1,0.1-1.7c-0.2-0.8-0.6-1.5-1.3-2L61.1,92.6c-0.9-0.6-1.5-1.2-1.8-1.6
	c0.5-0.1,1.3-0.2,2.4-0.2h26.1c0.7,0,1.4-0.2,2-0.7c0.5-0.4,0.9-1,1.2-1.6L95.1,76v0c0,0,0,0,0-0.1l4-12.2c0.3-1,0.7-1.8,0.9-2.2
	c0.3,0.5,0.6,1.2,0.9,2.2l4,12.2c0,0,0,0.1,0,0.1l4.1,12.5c0.3,0.8,0.9,1.5,1.7,1.9c0.1,0,0.1,0.1,0.2,0.1c0.4,0.2,0.8,0.3,1.3,0.3
	h26.1c1.1,0,1.9,0.1,2.4,0.2c-0.4,0.4-1,1-1.8,1.6L117.7,108c-1.2,0.8-1.6,2.3-1.2,3.7l8.1,24.8c0.3,1,0.5,1.8,0.6,2.4
	C124.6,138.7,123.9,138.3,123.1,137.6z"/>
</svg>
