<?xml version="1.0" encoding="utf-8"?>
<!-- Generator: Adobe Illustrator 18.0.0, SVG Export Plug-In . SVG Version: 6.00 Build 0)  -->
<!DOCTYPE svg PUBLIC "-//W3C//DTD SVG 1.1//EN" "http://www.w3.org/Graphics/SVG/1.1/DTD/svg11.dtd">
<svg version="1.1" id="Layer_1" xmlns="http://www.w3.org/2000/svg" xmlns:xlink="http://www.w3.org/1999/xlink" x="0px" y="0px"
	 viewBox="0 0 200 200" enable-background="new 0 0 200 200" xml:space="preserve">
<circle fill="none" stroke="#AE1F23" stroke-width="8" stroke-miterlimit="10" cx="100" cy="100" r="93.5"/>
<path fill="#AE1F23" d="M125.5,112.9l20.8-15.1c5.7-4.1,6-7.7,5.3-9.9c-0.7-2.3-3.1-4.9-10.1-4.9h-25.7l-3.6-11c0,0,0-0.1,0-0.1
	l-4.3-13.3c-2.2-6.7-5.5-8.1-7.8-8.1c-2.4,0-5.6,1.4-7.8,8.1l-4.3,13.3c0,0,0,0.1,0,0.1l-3.6,11.1H58.5c-7,0-9.4,2.7-10.1,4.9
	c-0.7,2.3-0.4,5.8,5.3,9.9l20.8,15.1l-7.9,24.5c-1.4,4.3-1.3,7.6,0.3,9.9c1.1,1.5,2.8,2.4,4.8,2.4c2.2,0,4.7-1,7.5-3.1l20.8-15.1
	l20.8,15.1c2.8,2.1,5.3,3.1,7.5,3.1c2,0,3.7-0.8,4.8-2.4c1.6-2.2,1.7-5.5,0.3-9.9L125.5,112.9z M125,140.8l-22.9-16.6
	c-0.4-0.3-0.8-0.5-1.3-0.6c-1-0.2-2.1,0-2.9,0.6L75,140.8c-1,0.7-1.7,1.1-2.3,1.4c0.1-0.6,0.2-1.5,0.6-2.6l4.3-13.3c0,0,0-0.1,0-0.1
	l4.4-13.5c0.2-0.6,0.2-1.2,0.1-1.8c-0.2-0.9-0.7-1.7-1.4-2.2L57.9,92c-1-0.7-1.6-1.3-2-1.7c0.6-0.1,1.5-0.2,2.6-0.2h28.3
	c0.8,0,1.5-0.3,2.2-0.7c0.6-0.4,1-1,1.2-1.7L94.6,74v0c0,0,0,0,0-0.1L99,60.7c0.4-1.1,0.7-1.9,1-2.4c0.3,0.5,0.7,1.3,1,2.4l4.3,13.2
	c0,0,0,0.1,0,0.1l4.4,13.5c0.3,0.9,0.9,1.7,1.8,2.1c0.1,0,0.2,0.1,0.2,0.1c0.4,0.2,0.9,0.3,1.4,0.3h28.3c1.2,0,2,0.1,2.6,0.2
	c-0.4,0.4-1,1-2,1.7l-22.9,16.6c-1.3,0.9-1.8,2.5-1.3,4l8.7,26.9c0.4,1.1,0.5,2,0.6,2.6C126.7,141.9,125.9,141.5,125,140.8z"/>
</svg>
