<?xml version="1.0" encoding="utf-8"?>
<!-- Generator: Adobe Illustrator 19.0.0, SVG Export Plug-In . SVG Version: 6.00 Build 0)  -->
<svg version="1.1" id="Layer_5" xmlns="http://www.w3.org/2000/svg" xmlns:xlink="http://www.w3.org/1999/xlink" x="0px" y="0px"
	 viewBox="0 0 138.3 154.9" style="enable-background:new 0 0 138.3 154.9;" xml:space="preserve">
<style type="text/css">
	.st0{fill:#0055BA;}
	.st1{fill:#00467F;}
	.st2{fill:#EF3800;}
	.st3{fill:#F36533;}
	.st4{fill:#FFFFFF;}
</style>
<g id="Layer_1_copy_13_2_">
</g>
<g id="Layer_1_copy_12">
	<path d="M72.7,7L7,18.9v85.4c0,7.7,4.1,14.7,10.7,18.6l55,32.1V7z"/>
	<path d="M72.7,154.9l55-32.1c6.6-3.9,10.7-10.9,10.7-18.6V18.9L72.7,7V154.9z"/>
	<path class="st0" d="M9.9,97.2V21.4l55.7-10.1V0L0,11.9v85.4c0,7.7,4.1,14.7,10.7,18.6l55,32.1v-11.3l-49.8-29
		C12.2,105.4,9.9,101.5,9.9,97.2"/>
	<path class="st1" d="M65.6,0v11.3l55.7,10.1v75.8c0,4.2-2.3,8.2-5.9,10.3l-49.8,29v11.3l55-32.1c6.6-3.9,10.7-10.9,10.7-18.6V11.9
		L65.6,0z"/>
	<path class="st2" d="M65.6,11.3l55.7,10.1v75.8c0,4.2-2.3,8.2-5.9,10.3l-49.8,29V11.3z"/>
	<path class="st3" d="M65.6,11.3L9.9,21.4v75.8c0,4.2,2.3,8.2,5.9,10.3l49.8,29V11.3z"/>
	<polygon class="st4" points="65.6,88.6 87.5,61.7 87.5,108 108.5,95.7 108.5,31 87.8,27.2 65.6,54.3 43.4,27.2 22.7,31 22.7,95.7 
		43.8,108 43.8,61.7 	"/>
</g>
</svg>
