<?xml version="1.0" encoding="utf-8"?>
<!-- Generator: Adobe Illustrator 19.0.0, SVG Export Plug-In . SVG Version: 6.00 Build 0)  -->
<svg version="1.1" id="Layer_1" xmlns="http://www.w3.org/2000/svg" xmlns:xlink="http://www.w3.org/1999/xlink" x="0px" y="0px"
	 viewBox="0 0 300.2 294.5" style="enable-background:new 0 0 300.2 294.5;" xml:space="preserve">
<style type="text/css">
	.st0{fill:#FFFFFF;}
	.st1{fill:#788E8E;}
	.st2{fill:none;}
</style>
<path class="st0" d="M222.6,129.8c1.3-0.7,2.7-2.2,2-5.3c-0.5-2.7-0.5-6.5,2.9-9.2c11.1-9,18.7-22.4,21.3-37.6
	c1.6-9.4,1.3-18.9-0.9-27.8l2.8-1.6c2-1.1,2.9-3.3,2.4-5.4l15.1-8.5c1.5,1.5,3.9,1.8,5.9,0.7c2.4-1.3,3.2-4.4,1.9-6.8l-0.7-1.2
	c3.4-2.3,2.5-7.7,7-11.1c3-2.3,8.4-3.2,12.2-5.3c4.2-2.3,6.4-6.6,5.1-8.9c-1.3-2.3-6.1-2.6-10.3-0.2c-3.4,1.9-7.3,6.3-10.8,7.7
	c-5.3,2.1-9.4-1.5-13.2,0.2l-0.7-1.2c-1.3-2.4-4.4-3.2-6.8-1.9c-2,1.1-2.9,3.3-2.4,5.4l-15.1,8.5c-1.5-1.5-3.9-1.8-5.9-0.7l-2.8,1.6
	c-6.4-6.5-14.4-11.7-23.3-15.2c-14.4-5.7-29.8-6.1-43.2-1.3c-4.1,1.5-7.4-0.4-9.4-2.3c-2.3-2.1-4.3-1.7-5.5-1L144.2,5l72.2,128.3
	L222.6,129.8z M248.6,34.1l-2.9-5.2l14.8-8.3l2.9,5.2L248.6,34.1z"/>
<g>
	<polygon class="st0" points="164.4,158.8 168.6,155.5 163.8,155.5 	"/>
	<path class="st0" d="M100.5,122.7l8.5-1.5c0.7,1.6,1.7,3,2.8,4c2.1,1.9,4.7,2.5,7.7,2c2.2-0.4,3.9-1.3,5.2-2.7
		c1.3-1.4,2.4-3.8,3.3-7.2c0.7-2.6,1.2-4.2,1.5-4.9c0.3-0.7,0.7-1.2,1.1-1.6c0.4-0.4,0.9-0.6,1.6-0.7c1-0.2,1.9,0,2.6,0.6
		c0.7,0.6,1.2,1.6,1.5,2.9c0.2,1.1,0.3,2.3,0.2,3.5c-0.1,1.2-0.3,2.8-0.7,4.7l5.9,1.3c0.4-1.8,0.7-3.6,0.9-5.2
		c0.1-0.9,0.1-1.7,0-2.6l8.4-1.5l-1.2-6.7l-8.8,1.6c-0.7-1.5-1.6-2.7-2.7-3.6c-2-1.7-4.5-2.3-7.5-1.8c-1.6,0.3-2.9,0.8-3.9,1.6
		c-1.1,0.8-1.9,1.8-2.6,3c-0.7,1.2-1.4,2.9-1.9,5.1c-0.6,2.4-1.1,3.9-1.5,4.7c-0.3,0.8-0.7,1.4-1.2,1.9c-0.4,0.5-1,0.7-1.6,0.9
		c-1.2,0.2-2.1-0.1-2.9-0.8c-0.7-0.7-1.2-1.9-1.5-3.4c-0.2-1.3-0.3-2.8-0.1-4.4c0.1-1.6,0.5-3.7,1.1-6.1l-6.6,1.2
		c-0.7,2.4-0.9,5-0.6,7.7l-8,1.4L100.5,122.7z"/>
	<path class="st0" d="M22.6,23.9l77.5-5.5c7.1-0.5,13.7,3.5,16.6,10.1l14.7,34.1L86.9,74.9l-33-12l-36,1L22.6,23.9z"/>
	<polygon class="st1" points="131.2,61.5 111.2,65 100.2,37.5 68.7,41 88.6,71.9 	"/>
</g>
<g>
	<g>
		<polygon class="st2" points="147.5,65 87.9,75.3 97.2,129.2 158.6,129.2 		"/>
		<path class="st1" d="M168.8,129.2l-12.3-70.8c-0.4-2.5-2.6-4.2-5-4.2c-0.3,0-0.6,0-0.9,0.1l-69.3,12c-2.8,0.5-4.6,3.1-4.1,5.8
			l9.9,57l3.1,18h10.1l-3.1-18l-9.3-53.9L147.5,65l11.1,64.2l3.1,18h10.1L168.8,129.2z"/>
	</g>
</g>
<g>
	<rect x="174.6" y="194.2" class="st1" width="18.1" height="9.3"/>
	<rect x="106.7" y="194.2" class="st1" width="18.1" height="9.3"/>
	<rect x="140.7" y="194.2" class="st1" width="18.1" height="9.3"/>
	<rect x="69.1" y="194.2" class="st1" width="21.8" height="9.3"/>
	<rect x="208.6" y="194.2" class="st1" width="21.8" height="9.3"/>
	<path class="st0" d="M230.4,158c2.7-1.1,4.6-3.7,4.6-6.8c0-4-3.3-7.3-7.3-7.3H71.8c-4,0-7.3,3.3-7.3,7.3c0,3.1,1.9,5.7,4.6,6.8
		v37.2h21.8v-26.1c0-4.4,3.5-7.9,7.9-7.9s7.9,3.5,7.9,7.9v26.1h18.1v-26.1c0-4.4,3.5-7.9,7.9-7.9c4.4,0,7.9,3.5,7.9,7.9v26.1h18.1
		v-26.1c0-4.4,3.5-7.9,7.9-7.9c4.4,0,7.9,3.5,7.9,7.9v26.1h18.1v-26.1c0-4.4,3.5-7.9,7.9-7.9c4.4,0,7.9,3.5,7.9,7.9v26.1h21.8V158z"
		/>
	<g>
		<rect x="122.6" y="270.4" class="st1" width="20" height="11.2"/>
		<rect x="156.8" y="270.4" class="st1" width="20" height="11.2"/>
		<rect x="190.9" y="270.4" class="st1" width="20" height="11.2"/>
		<path class="st0" d="M245.3,217.6c2.9-1,4.9-3.7,4.9-6.9c0-4-3.3-7.3-7.3-7.3H56.5c-4,0-7.3,3.3-7.3,7.3c0,3.2,2.1,5.9,4.9,6.9
			v53.8h20.2v-33c0-3.9,3.2-7.1,7.1-7.1c3.9,0,7.1,3.2,7.1,7.1v33h20v-33c0-3.9,3.2-7.1,7.1-7.1c3.9,0,7.1,3.2,7.1,7.1v33h20v-33
			c0-3.9,3.2-7.1,7.1-7.1c3.9,0,7.1,3.2,7.1,7.1v33h20v-33c0-3.9,3.2-7.1,7.1-7.1c3.9,0,7.1,3.2,7.1,7.1v33h20v-33
			c0-3.9,3.2-7.1,7-7.1c3.9,0,7.1,3.2,7.1,7.1v33h20.2V217.6z"/>
		<rect x="225" y="270.4" class="st1" width="20.2" height="11.2"/>
		<rect x="54.2" y="270.4" class="st1" width="20.2" height="11.2"/>
		<rect x="88.5" y="270.4" class="st1" width="20" height="11.2"/>
		<rect x="74.4" y="281.5" class="st0" width="14.1" height="0.4"/>
		<rect x="108.5" y="281.5" class="st0" width="14.1" height="0.4"/>
		<rect x="142.7" y="281.5" class="st0" width="14.1" height="0.4"/>
		<rect x="176.8" y="281.5" class="st0" width="14.1" height="0.4"/>
		<rect x="210.9" y="281.5" class="st0" width="14.1" height="0.4"/>
		<path class="st0" d="M243.5,294.5H55.3c-3.9,0-7-3.1-7-7l0,0c0-3.9,3.1-7,7-7h188.2c3.9,0,7,3.1,7,7l0,0
			C250.5,291.4,247.4,294.5,243.5,294.5z"/>
	</g>
</g>
<path class="st0" d="M78.2,52.2l38.3,26.1c5.3,3.6,6.5,10.8,2.7,16l0,0c-3.4,4.7-9.9,6-14.9,3L68.3,75.5l-49.4,1.7l3.3-44l48-1
	L78.2,52.2z"/>
<g>
	<path class="st1" d="M8,13.9L0,86.4l21,2.3l8-72.5L8,13.9z M11.7,81.5c-3,0-5.5-2.5-5.5-5.5c0-3,2.5-5.5,5.5-5.5
		c3,0,5.5,2.5,5.5,5.5C17.2,79.1,14.8,81.5,11.7,81.5z"/>
</g>
</svg>
