<?xml version="1.0" encoding="utf-8"?>
<!-- Generator: Adobe Illustrator 19.0.0, SVG Export Plug-In . SVG Version: 6.00 Build 0)  -->
<svg version="1.1" id="Layer_1" xmlns="http://www.w3.org/2000/svg" xmlns:xlink="http://www.w3.org/1999/xlink" x="0px" y="0px"
	 viewBox="0 0 173.3 194.7" style="enable-background:new 0 0 173.3 194.7;" xml:space="preserve">
<style type="text/css">
	.st0{fill:#0055BA;}
	.st1{fill:#00467F;}
	.st2{fill:#F36533;}
	.st3{fill:#EF3800;}
	.st4{fill:#FFFFFF;}
</style>
<g>
	<g>
		<g>
			<path class="st0" d="M0,15.7v113.7c0,11.2,6,18.1,15.7,23.8l71,41.4V0L0,15.7z"/>
			<path class="st1" d="M86.7,0v194.7l71-41.4c9.7-5.7,15.7-16,15.7-27.3V15.7L86.7,0z"/>
			<path class="st2" d="M86.7,15L13.1,28.3v96.8c0,7.7,4.1,14.8,10.7,18.6l62.8,36.6l62.8-36.6c6.6-3.9,10.7-11,10.7-18.6V28.3
				L86.7,15z"/>
			<path class="st3" d="M86.7,15v165.4l62.8-36.6c6.6-3.9,10.7-11,10.7-18.6V28.3L86.7,15z"/>
		</g>
		<polygon class="st4" points="116,35.9 86.7,69.8 86.7,69.8 86.7,69.8 57.3,35.9 30,40.9 30,126.4 57.8,142.5 57.8,81.5 
			86.7,115.2 86.7,115.1 86.7,115.2 115.6,81.5 115.6,142.5 143.3,126.4 143.3,40.9 		"/>
	</g>
</g>
</svg>
