<?xml version="1.0" encoding="utf-8"?>
<!-- Generator: Adobe Illustrator 18.0.0, SVG Export Plug-In . SVG Version: 6.00 Build 0)  -->
<!DOCTYPE svg PUBLIC "-//W3C//DTD SVG 1.1//EN" "http://www.w3.org/Graphics/SVG/1.1/DTD/svg11.dtd">
<svg version="1.1" id="Isolation_Mode" xmlns="http://www.w3.org/2000/svg" xmlns:xlink="http://www.w3.org/1999/xlink" x="0px"
	 y="0px" viewBox="0 0 180.5 55.5" enable-background="new 0 0 180.5 55.5" xml:space="preserve">
<g>
	<g>
		<path fill="none" d="M86,17.5v3.7c0,0.1,0.1,0.2,0.2,0.2c0.1,0,0.2-0.1,0.2-0.2v-3.7c0-0.1-0.1-0.2-0.2-0.2
			C86.1,17.2,86,17.3,86,17.5z"/>
		<path fill="none" d="M84.5,17.7v3.7c0,0.1,0.1,0.2,0.2,0.2c0.1,0,0.2-0.1,0.2-0.2v-3.7c0-0.1-0.1-0.2-0.2-0.2
			C84.6,17.5,84.5,17.6,84.5,17.7z"/>
		<path fill="none" d="M87.4,17.3V21c0,0.1,0.1,0.2,0.2,0.2c0.1,0,0.2-0.1,0.2-0.2v-3.7c0-0.1-0.1-0.2-0.2-0.2
			C87.5,17.1,87.4,17.2,87.4,17.3z"/>
		<path fill="none" d="M88.9,17.2v3.7c0,0.1,0.1,0.2,0.2,0.2c0.1,0,0.2-0.1,0.2-0.2v-3.7c0-0.1-0.1-0.2-0.2-0.2
			C89,17,88.9,17.1,88.9,17.2z"/>
		<path fill="none" d="M99.2,25.9v4.6c0,0.2,0.1,0.3,0.3,0.3c0.2,0,0.3-0.1,0.3-0.3v-4.6c0-0.2-0.1-0.3-0.3-0.3
			C99.3,25.6,99.2,25.7,99.2,25.9z"/>
		<path fill="none" d="M97.4,25.6v4.6c0,0.2,0.1,0.3,0.3,0.3c0.2,0,0.3-0.1,0.3-0.3v-4.6c0-0.2-0.1-0.3-0.3-0.3
			C97.5,25.3,97.4,25.4,97.4,25.6z"/>
		<path fill="none" d="M90.3,17.2v3.7c0,0.1,0.1,0.2,0.2,0.2c0.1,0,0.2-0.1,0.2-0.2v-3.7c0-0.1-0.1-0.2-0.2-0.2
			C90.4,17,90.3,17.1,90.3,17.2z"/>
		<path fill="none" d="M80.3,23.8L80.3,23.8c0,0,0.1,0,0.2-0.1c0.1-0.1,0.3-0.1,0.6-0.2c0.3-0.1,0.6-0.2,1-0.2
			c0.4-0.1,0.8-0.2,1.3-0.2c0.5-0.1,1-0.1,1.6-0.2c0.6,0,1.1-0.1,1.7-0.1c0.6,0,1.2-0.1,1.9-0.1c0.6,0,1.3,0,1.9,0
			c1.3,0,2.6,0,3.8,0.1c0.6,0,1.2,0.1,1.7,0.1c0.6,0,1.1,0.1,1.6,0.2c0.5,0.1,0.9,0.1,1.3,0.2c0.4,0.1,0.7,0.2,1,0.2
			c0.3,0.1,0.5,0.1,0.6,0.2c0.1,0.1,0.2,0.1,0.2,0.1c0.1,0,0.1,0,0.2-0.1c0-0.1,0-0.2-0.1-0.2c0,0-0.1,0-0.2-0.1
			c-0.1-0.1-0.3-0.2-0.6-0.3c-0.3-0.1-0.6-0.2-1-0.3c-0.2-0.1-0.4-0.1-0.6-0.2c-0.2,0-0.5-0.1-0.7-0.1c-1-0.2-2.1-0.3-3.3-0.4
			C93.1,22,91.8,22,90.5,22c-1.3,0-2.6,0-3.9,0.1c-1.2,0.1-2.4,0.3-3.3,0.4c-0.2,0.1-0.5,0.1-0.7,0.1c-0.2,0.1-0.4,0.1-0.6,0.2
			c-0.4,0.1-0.7,0.2-1,0.3c-0.3,0.1-0.5,0.2-0.6,0.3c-0.1,0.1-0.2,0.1-0.2,0.1c-0.1,0-0.1,0.1-0.1,0.2
			C80.1,23.8,80.2,23.8,80.3,23.8z"/>
		<path fill="none" d="M81.9,22.3c0.1,0,0.2-0.1,0.2-0.2v-3.7c0-0.1-0.1-0.2-0.2-0.2c-0.1,0-0.2,0.1-0.2,0.2v3.7
			C81.6,22.2,81.7,22.3,81.9,22.3z"/>
		<path fill="none" d="M83.1,18v3.7c0,0.1,0.1,0.2,0.2,0.2c0.1,0,0.2-0.1,0.2-0.2V18c0-0.1-0.1-0.2-0.2-0.2
			C83.2,17.8,83.1,17.9,83.1,18z"/>
		<path fill="none" d="M99.2,22.3c0.1,0,0.2-0.1,0.2-0.2v-3.7c0-0.1-0.1-0.2-0.2-0.2c-0.1,0-0.2,0.1-0.2,0.2v3.7
			C99,22.2,99.1,22.3,99.2,22.3z"/>
		<path fill="none" d="M82.3,16.5L82.3,16.5c0,0,0.1,0,0.2-0.1c0.1,0,0.3-0.1,0.5-0.2c0.2-0.1,0.5-0.1,0.8-0.2
			c0.3-0.1,0.7-0.1,1-0.2c0.4-0.1,0.8-0.1,1.3-0.1c0.4,0,0.9-0.1,1.4-0.1c0.5,0,1,0,1.5-0.1c0.5,0,1,0,1.6,0c1,0,2.1,0,3.1,0.1
			c0.5,0,1,0.1,1.4,0.1c0.4,0,0.9,0.1,1.3,0.1c0.4,0.1,0.7,0.1,1,0.2c0.3,0.1,0.6,0.1,0.8,0.2c0.2,0.1,0.4,0.1,0.5,0.2
			c0.1,0,0.2,0.1,0.2,0.1c0.1,0,0.1,0,0.1-0.1c0-0.1,0-0.1-0.1-0.2c0,0-0.1,0-0.2-0.1c-0.1-0.1-0.3-0.1-0.5-0.2
			c-0.2-0.1-0.5-0.2-0.8-0.3c-0.2,0-0.3-0.1-0.5-0.1c-0.2,0-0.4-0.1-0.6-0.1c-0.8-0.1-1.7-0.3-2.7-0.4c-1-0.1-2-0.1-3.1-0.1
			c-1.1,0-2.1,0-3.1,0.1c-1,0.1-1.9,0.2-2.7,0.4c-0.2,0-0.4,0.1-0.6,0.1c-0.2,0-0.3,0.1-0.5,0.1c-0.3,0.1-0.6,0.2-0.8,0.3
			c-0.2,0.1-0.4,0.2-0.5,0.2c-0.1,0.1-0.2,0.1-0.2,0.1c-0.1,0-0.1,0.1-0.1,0.1C82.1,16.5,82.2,16.6,82.3,16.5z"/>
		<path fill="none" d="M101.2,31.4c0.2,0,0.3-0.1,0.3-0.3v-4.6c0-0.2-0.1-0.3-0.3-0.3c-0.2,0-0.3,0.1-0.3,0.3v4.6
			C100.9,31.3,101.1,31.4,101.2,31.4z"/>
		<path fill="none" d="M76.8,36.1c-0.6,0-1,0.4-1,1v10.4c0,0.6,0.4,1,1,1c0.6,0,1-0.4,1-1V37.1C77.8,36.6,77.4,36.1,76.8,36.1z"/>
		<path fill="none" d="M72.2,36.1c-0.6,0-1,0.4-1,1v10.4c0,0.6,0.4,1,1,1c0.6,0,1-0.4,1-1V37.1C73.2,36.6,72.8,36.1,72.2,36.1z"/>
		<path fill="none" d="M97.5,18v3.7c0,0.1,0.1,0.2,0.2,0.2c0.1,0,0.2-0.1,0.2-0.2V18c0-0.1-0.1-0.2-0.2-0.2
			C97.6,17.8,97.5,17.9,97.5,18z"/>
		<path fill="none" d="M94.6,17.5v3.7c0,0.1,0.1,0.2,0.2,0.2c0.1,0,0.2-0.1,0.2-0.2v-3.7c0-0.1-0.1-0.2-0.2-0.2
			C94.7,17.2,94.6,17.3,94.6,17.5z"/>
		<path fill="none" d="M91.7,17.2v3.7c0,0.1,0.1,0.2,0.2,0.2c0.1,0,0.2-0.1,0.2-0.2v-3.7c0-0.1-0.1-0.2-0.2-0.2
			C91.8,17,91.7,17.1,91.7,17.2z"/>
		<path fill="none" d="M93.4,17.1c-0.1,0-0.2,0.1-0.2,0.2V21c0,0.1,0.1,0.2,0.2,0.2c0.1,0,0.2-0.1,0.2-0.2v-3.7
			C93.6,17.2,93.5,17.1,93.4,17.1z"/>
		<path fill="none" d="M96.1,17.7v3.7c0,0.1,0.1,0.2,0.2,0.2c0.1,0,0.2-0.1,0.2-0.2v-3.7c0-0.1-0.1-0.2-0.2-0.2
			C96.2,17.5,96.1,17.6,96.1,17.7z"/>
		<path fill="none" d="M90.2,24.9v4.6c0,0.2,0.1,0.3,0.3,0.3c0.2,0,0.3-0.1,0.3-0.3v-4.6c0-0.2-0.1-0.3-0.3-0.3
			C90.4,24.6,90.2,24.7,90.2,24.9z"/>
		<path fill="none" d="M95.1,36.1c-0.6,0-1,0.4-1,1v10.4c0,0.6,0.4,1,1,1c0.6,0,1-0.4,1-1V37.1C96.1,36.6,95.6,36.1,95.1,36.1z"/>
		<path fill="none" d="M99.7,36.1c-0.6,0-1,0.4-1,1v10.4c0,0.6,0.4,1,1,1c0.6,0,1-0.4,1-1V37.1C100.7,36.6,100.2,36.1,99.7,36.1z"/>
		<path fill="none" d="M90.5,36.1c-0.6,0-1,0.4-1,1v10.4c0,0.6,0.4,1,1,1c0.6,0,1-0.4,1-1V37.1C91.5,36.6,91.1,36.1,90.5,36.1z"/>
		<path fill="none" d="M86,36.1c-0.6,0-1,0.4-1,1v10.4c0,0.6,0.4,1,1,1s1-0.4,1-1V37.1C87,36.6,86.5,36.1,86,36.1z"/>
		<path fill="none" d="M108.8,36.1c-0.6,0-1,0.4-1,1v10.4c0,0.6,0.4,1,1,1c0.6,0,1-0.4,1-1V37.1C109.8,36.6,109.4,36.1,108.8,36.1z"
			/>
		<path fill="none" d="M102.4,32.8c-0.2-0.1-0.4-0.2-0.7-0.3c-0.3-0.1-0.7-0.2-1.2-0.4c-0.2-0.1-0.5-0.1-0.7-0.2
			c-0.3-0.1-0.5-0.1-0.8-0.2c-1.1-0.2-2.5-0.4-3.9-0.5c-1.4-0.1-3-0.2-4.5-0.2c-1.5,0-3.1,0-4.5,0.2c-1.4,0.1-2.8,0.3-3.9,0.5
			c-0.3,0.1-0.6,0.1-0.8,0.2c-0.3,0.1-0.5,0.1-0.7,0.2c-0.5,0.1-0.8,0.3-1.2,0.4c-0.3,0.1-0.6,0.2-0.7,0.3c-0.2,0.1-0.3,0.1-0.3,0.1
			c-0.1,0-0.1,0.1-0.1,0.2c0,0.1,0.1,0.1,0.2,0.1l0,0c0,0,0.1,0,0.3-0.1c0.2-0.1,0.4-0.1,0.7-0.2c0.3-0.1,0.7-0.2,1.2-0.3
			c0.5-0.1,1-0.2,1.5-0.3c0.6-0.1,1.2-0.2,1.8-0.2c0.6-0.1,1.3-0.1,2-0.1c0.7,0,1.4-0.1,2.2-0.1c0.7,0,1.5,0,2.3,0
			c1.5,0,3,0,4.5,0.1c0.7,0,1.4,0.1,2,0.1c0.6,0.1,1.3,0.1,1.8,0.2c0.6,0.1,1.1,0.2,1.5,0.3c0.4,0.1,0.8,0.2,1.1,0.3
			c0.3,0.1,0.6,0.2,0.7,0.2c0.2,0.1,0.3,0.1,0.3,0.1c0.1,0,0.2,0,0.2-0.1c0-0.1,0-0.2-0.1-0.2C102.6,32.9,102.5,32.9,102.4,32.8z"/>
		<path fill="none" d="M81.4,36.1c-0.6,0-1,0.4-1,1v10.4c0,0.6,0.4,1,1,1c0.6,0,1-0.4,1-1V37.1C82.4,36.6,81.9,36.1,81.4,36.1z"/>
		<path fill="none" d="M104.2,36.1c-0.6,0-1,0.4-1,1v10.4c0,0.6,0.4,1,1,1c0.6,0,1-0.4,1-1V37.1C105.2,36.6,104.8,36.1,104.2,36.1z"
			/>
		<path fill="none" d="M83.1,25.6v4.6c0,0.2,0.1,0.3,0.3,0.3c0.2,0,0.3-0.1,0.3-0.3v-4.6c0-0.2-0.1-0.3-0.3-0.3
			C83.2,25.3,83.1,25.4,83.1,25.6z"/>
		<path fill="none" d="M79.8,31.4c0.2,0,0.3-0.1,0.3-0.3v-4.6c0-0.2-0.1-0.3-0.3-0.3c-0.2,0-0.3,0.1-0.3,0.3v4.6
			C79.5,31.3,79.7,31.4,79.8,31.4z"/>
		<path fill="none" d="M92,24.9v4.6c0,0.2,0.1,0.3,0.3,0.3c0.2,0,0.3-0.1,0.3-0.3v-4.6c0-0.2-0.1-0.3-0.3-0.3
			C92.2,24.6,92,24.7,92,24.9z"/>
		<path fill="none" d="M88.5,24.9v4.6c0,0.2,0.1,0.3,0.3,0.3c0.2,0,0.3-0.1,0.3-0.3v-4.6c0-0.2-0.1-0.3-0.3-0.3
			C88.6,24.6,88.5,24.7,88.5,24.9z"/>
		<path fill="none" d="M94.1,24.8c-0.2,0-0.3,0.1-0.3,0.3v4.6c0,0.2,0.1,0.3,0.3,0.3c0.2,0,0.3-0.1,0.3-0.3v-4.6
			C94.4,24.9,94.2,24.8,94.1,24.8z"/>
		<path fill="none" d="M86.7,25.1v4.6c0,0.2,0.1,0.3,0.3,0.3c0.2,0,0.3-0.1,0.3-0.3v-4.6c0-0.2-0.1-0.3-0.3-0.3
			C86.8,24.8,86.7,24.9,86.7,25.1z"/>
		<path fill="none" d="M84.9,25.2v4.6c0,0.2,0.1,0.3,0.3,0.3c0.2,0,0.3-0.1,0.3-0.3v-4.6c0-0.2-0.1-0.3-0.3-0.3
			C85,24.9,84.9,25.1,84.9,25.2z"/>
		<path fill="none" d="M81.3,25.9v4.6c0,0.2,0.1,0.3,0.3,0.3c0.2,0,0.3-0.1,0.3-0.3v-4.6c0-0.2-0.1-0.3-0.3-0.3
			C81.4,25.6,81.3,25.7,81.3,25.9z"/>
		<path fill="none" d="M95.9,24.9c-0.2,0-0.3,0.1-0.3,0.3v4.6c0,0.2,0.1,0.3,0.3,0.3c0.2,0,0.3-0.1,0.3-0.3v-4.6
			C96.2,25.1,96,24.9,95.9,24.9z"/>
		<path fill="#F0F1F2" d="M103.9,33.2c0-8.2-0.4-9.1-2-9.4c0-6.7-2.2-7-2.2-7c-2-10.5-9.2-10-9.2-10s-7.2-0.5-9.2,10
			c0,0-2.2,0.3-2.2,7c-1.6,0.3-2,1.1-2,9.4H67v4.2h0.2v17.2c11.5,0,23.3,0,23.3,0H114V37.4v-4.2H103.9z M73.2,47.2c0,0.6-0.4,1-1,1
			c-0.6,0-1-0.4-1-1V36.9c0-0.6,0.4-1,1-1c0.6,0,1,0.4,1,1V47.2z M77.8,47.2c0,0.6-0.4,1-1,1c-0.6,0-1-0.4-1-1V36.9c0-0.6,0.4-1,1-1
			c0.6,0,1,0.4,1,1V47.2z M100.9,26.3c0-0.2,0.1-0.3,0.3-0.3c0.2,0,0.3,0.1,0.3,0.3v4.6c0,0.2-0.1,0.3-0.3,0.3
			c-0.2,0-0.3-0.1-0.3-0.3V26.3z M99,18.1c0-0.1,0.1-0.2,0.2-0.2c0.1,0,0.2,0.1,0.2,0.2v3.7c0,0.1-0.1,0.2-0.2,0.2
			c-0.1,0-0.2-0.1-0.2-0.2V18.1z M82.2,16.1c0,0,0.1,0,0.2-0.1c0.1-0.1,0.3-0.1,0.5-0.2c0.2-0.1,0.5-0.2,0.8-0.3
			c0.2,0,0.3-0.1,0.5-0.1c0.2,0,0.4-0.1,0.6-0.1c0.8-0.1,1.7-0.3,2.7-0.4c1-0.1,2-0.1,3.1-0.1c1.1,0,2.1,0,3.1,0.1
			c1,0.1,1.9,0.2,2.7,0.4c0.2,0,0.4,0.1,0.6,0.1c0.2,0,0.3,0.1,0.5,0.1c0.3,0.1,0.6,0.2,0.8,0.3c0.2,0.1,0.4,0.2,0.5,0.2
			c0.1,0.1,0.2,0.1,0.2,0.1c0.1,0,0.1,0.1,0.1,0.2c0,0.1-0.1,0.1-0.1,0.1c0,0-0.1,0-0.2-0.1c-0.1,0-0.3-0.1-0.5-0.2
			c-0.2-0.1-0.5-0.1-0.8-0.2c-0.3-0.1-0.7-0.1-1-0.2c-0.4-0.1-0.8-0.1-1.3-0.1c-0.4,0-0.9-0.1-1.4-0.1c-1,0-2-0.1-3.1-0.1
			c-0.5,0-1,0-1.6,0c-0.5,0-1,0-1.5,0.1c-0.5,0-1,0.1-1.4,0.1c-0.4,0-0.9,0.1-1.3,0.1c-0.4,0.1-0.7,0.1-1,0.2
			c-0.3,0.1-0.6,0.1-0.8,0.2c-0.2,0.1-0.4,0.1-0.5,0.2c-0.1,0-0.2,0.1-0.2,0.1l0,0c-0.1,0-0.1,0-0.1-0.1
			C82.1,16.2,82.1,16.1,82.2,16.1z M98,17.8v3.7c0,0.1-0.1,0.2-0.2,0.2c-0.1,0-0.2-0.1-0.2-0.2v-3.7c0-0.1,0.1-0.2,0.2-0.2
			C97.9,17.5,98,17.6,98,17.8z M96.5,17.5v3.7c0,0.1-0.1,0.2-0.2,0.2c-0.1,0-0.2-0.1-0.2-0.2v-3.7c0-0.1,0.1-0.2,0.2-0.2
			C96.4,17.3,96.5,17.4,96.5,17.5z M95.1,17.2v3.7c0,0.1-0.1,0.2-0.2,0.2c-0.1,0-0.2-0.1-0.2-0.2v-3.7c0-0.1,0.1-0.2,0.2-0.2
			C95,17,95.1,17.1,95.1,17.2z M93.6,17.1v3.7c0,0.1-0.1,0.2-0.2,0.2c-0.1,0-0.2-0.1-0.2-0.2v-3.7c0-0.1,0.1-0.2,0.2-0.2
			C93.5,16.9,93.6,17,93.6,17.1z M92.2,17v3.7c0,0.1-0.1,0.2-0.2,0.2c-0.1,0-0.2-0.1-0.2-0.2V17c0-0.1,0.1-0.2,0.2-0.2
			C92.1,16.7,92.2,16.8,92.2,17z M90.7,17v3.7c0,0.1-0.1,0.2-0.2,0.2c-0.1,0-0.2-0.1-0.2-0.2V17c0-0.1,0.1-0.2,0.2-0.2
			C90.6,16.7,90.7,16.8,90.7,17z M89.3,17v3.7c0,0.1-0.1,0.2-0.2,0.2c-0.1,0-0.2-0.1-0.2-0.2V17c0-0.1,0.1-0.2,0.2-0.2
			C89.2,16.7,89.3,16.8,89.3,17z M87.9,17.1v3.7c0,0.1-0.1,0.2-0.2,0.2c-0.1,0-0.2-0.1-0.2-0.2v-3.7c0-0.1,0.1-0.2,0.2-0.2
			C87.8,16.9,87.9,17,87.9,17.1z M86.4,17.2v3.7c0,0.1-0.1,0.2-0.2,0.2c-0.1,0-0.2-0.1-0.2-0.2v-3.7c0-0.1,0.1-0.2,0.2-0.2
			C86.3,17,86.4,17.1,86.4,17.2z M85,17.5v3.7c0,0.1-0.1,0.2-0.2,0.2c-0.1,0-0.2-0.1-0.2-0.2v-3.7c0-0.1,0.1-0.2,0.2-0.2
			C84.9,17.3,85,17.4,85,17.5z M83.5,17.8v3.7c0,0.1-0.1,0.2-0.2,0.2c-0.1,0-0.2-0.1-0.2-0.2v-3.7c0-0.1,0.1-0.2,0.2-0.2
			C83.4,17.5,83.5,17.6,83.5,17.8z M81.6,18.1c0-0.1,0.1-0.2,0.2-0.2c0.1,0,0.2,0.1,0.2,0.2v3.7c0,0.1-0.1,0.2-0.2,0.2
			c-0.1,0-0.2-0.1-0.2-0.2V18.1z M80.2,23.3c0,0,0.1,0,0.2-0.1c0.1-0.1,0.3-0.2,0.6-0.3c0.3-0.1,0.6-0.2,1-0.3
			c0.2-0.1,0.4-0.1,0.6-0.2c0.2,0,0.5-0.1,0.7-0.1c1-0.2,2.1-0.3,3.3-0.4c1.2-0.1,2.5-0.1,3.9-0.1c1.3,0,2.6,0,3.9,0.1
			c1.2,0.1,2.4,0.3,3.3,0.4c0.2,0.1,0.5,0.1,0.7,0.1c0.2,0.1,0.4,0.1,0.6,0.2c0.4,0.1,0.7,0.2,1,0.3c0.3,0.1,0.5,0.2,0.6,0.3
			c0.1,0.1,0.2,0.1,0.2,0.1c0.1,0,0.1,0.1,0.1,0.2c0,0.1-0.1,0.1-0.2,0.1c0,0-0.1,0-0.2-0.1c-0.1-0.1-0.4-0.1-0.6-0.2
			c-0.3-0.1-0.6-0.2-1-0.2c-0.4-0.1-0.8-0.2-1.3-0.2c-0.5-0.1-1-0.1-1.6-0.2c-0.6,0-1.1-0.1-1.7-0.1c-1.2-0.1-2.5-0.1-3.8-0.1
			c-0.7,0-1.3,0-1.9,0c-0.6,0-1.3,0-1.9,0.1c-0.6,0-1.2,0.1-1.7,0.1c-0.6,0-1.1,0.1-1.6,0.2c-0.5,0.1-0.9,0.1-1.3,0.2
			c-0.4,0.1-0.7,0.2-1,0.2c-0.3,0.1-0.5,0.1-0.6,0.2c-0.1,0-0.2,0.1-0.2,0.1l0,0c-0.1,0-0.2,0-0.2-0.1
			C80.1,23.4,80.1,23.3,80.2,23.3z M99.7,25.6v4.6c0,0.2-0.1,0.3-0.3,0.3c-0.2,0-0.3-0.1-0.3-0.3v-4.6c0-0.2,0.1-0.3,0.3-0.3
			C99.6,25.4,99.7,25.5,99.7,25.6z M97.9,25.3v4.6c0,0.2-0.1,0.3-0.3,0.3c-0.2,0-0.3-0.1-0.3-0.3v-4.6c0-0.2,0.1-0.3,0.3-0.3
			C97.8,25,97.9,25.1,97.9,25.3z M96.2,25v4.6c0,0.2-0.1,0.3-0.3,0.3c-0.2,0-0.3-0.1-0.3-0.3V25c0-0.2,0.1-0.3,0.3-0.3
			C96,24.7,96.2,24.8,96.2,25z M94.4,24.8v4.6c0,0.2-0.1,0.3-0.3,0.3c-0.2,0-0.3-0.1-0.3-0.3v-4.6c0-0.2,0.1-0.3,0.3-0.3
			C94.2,24.5,94.4,24.6,94.4,24.8z M92.6,24.6v4.6c0,0.2-0.1,0.3-0.3,0.3c-0.2,0-0.3-0.1-0.3-0.3v-4.6c0-0.2,0.1-0.3,0.3-0.3
			C92.5,24.4,92.6,24.5,92.6,24.6z M90.8,24.6v4.6c0,0.2-0.1,0.3-0.3,0.3c-0.2,0-0.3-0.1-0.3-0.3v-4.6c0-0.2,0.1-0.3,0.3-0.3
			C90.7,24.4,90.8,24.5,90.8,24.6z M89,24.6v4.6c0,0.2-0.1,0.3-0.3,0.3c-0.2,0-0.3-0.1-0.3-0.3v-4.6c0-0.2,0.1-0.3,0.3-0.3
			C88.9,24.4,89,24.5,89,24.6z M87.2,24.8v4.6c0,0.2-0.1,0.3-0.3,0.3c-0.2,0-0.3-0.1-0.3-0.3v-4.6c0-0.2,0.1-0.3,0.3-0.3
			C87.1,24.5,87.2,24.6,87.2,24.8z M85.4,25v4.6c0,0.2-0.1,0.3-0.3,0.3c-0.2,0-0.3-0.1-0.3-0.3V25c0-0.2,0.1-0.3,0.3-0.3
			C85.3,24.7,85.4,24.8,85.4,25z M83.7,25.3v4.6c0,0.2-0.1,0.3-0.3,0.3c-0.2,0-0.3-0.1-0.3-0.3v-4.6c0-0.2,0.1-0.3,0.3-0.3
			C83.5,25,83.7,25.1,83.7,25.3z M81.9,25.6v4.6c0,0.2-0.1,0.3-0.3,0.3c-0.2,0-0.3-0.1-0.3-0.3v-4.6c0-0.2,0.1-0.3,0.3-0.3
			C81.8,25.4,81.9,25.5,81.9,25.6z M79.5,26.3c0-0.2,0.1-0.3,0.3-0.3c0.2,0,0.3,0.1,0.3,0.3v4.6c0,0.2-0.1,0.3-0.3,0.3
			c-0.2,0-0.3-0.1-0.3-0.3V26.3z M82.4,47.2c0,0.6-0.4,1-1,1c-0.6,0-1-0.4-1-1V36.9c0-0.6,0.4-1,1-1c0.6,0,1,0.4,1,1V47.2z M87,47.2
			c0,0.6-0.4,1-1,1s-1-0.4-1-1V36.9c0-0.6,0.4-1,1-1s1,0.4,1,1V47.2z M91.5,47.2c0,0.6-0.4,1-1,1c-0.6,0-1-0.4-1-1V36.9
			c0-0.6,0.4-1,1-1c0.6,0,1,0.4,1,1V47.2z M96.1,47.2c0,0.6-0.4,1-1,1c-0.6,0-1-0.4-1-1V36.9c0-0.6,0.4-1,1-1c0.6,0,1,0.4,1,1V47.2z
			 M100.7,47.2c0,0.6-0.4,1-1,1c-0.6,0-1-0.4-1-1V36.9c0-0.6,0.4-1,1-1c0.6,0,1,0.4,1,1V47.2z M102.7,32.9c0,0.1-0.1,0.1-0.2,0.1
			c0,0-0.1,0-0.3-0.1c-0.2-0.1-0.4-0.1-0.7-0.2c-0.3-0.1-0.7-0.2-1.1-0.3c-0.5-0.1-1-0.2-1.5-0.3c-0.6-0.1-1.2-0.2-1.8-0.2
			c-0.6-0.1-1.3-0.1-2-0.1c-1.4-0.1-2.9-0.1-4.5-0.1c-0.8,0-1.5,0-2.3,0c-0.7,0-1.5,0-2.2,0.1c-0.7,0-1.4,0.1-2,0.1
			c-0.6,0.1-1.3,0.1-1.8,0.2c-0.6,0.1-1.1,0.2-1.5,0.3c-0.4,0.1-0.8,0.2-1.2,0.3c-0.3,0.1-0.6,0.2-0.7,0.2C78.6,33,78.6,33,78.6,33
			l0,0c-0.1,0-0.2,0-0.2-0.1c0-0.1,0-0.2,0.1-0.2c0,0,0.1,0,0.3-0.1c0.2-0.1,0.4-0.2,0.7-0.3c0.3-0.1,0.7-0.2,1.2-0.4
			c0.2-0.1,0.5-0.1,0.7-0.2c0.3-0.1,0.5-0.1,0.8-0.2c1.1-0.2,2.5-0.4,3.9-0.5c1.4-0.1,3-0.2,4.5-0.2c1.5,0,3.1,0,4.5,0.2
			c1.4,0.1,2.8,0.3,3.9,0.5c0.3,0.1,0.6,0.1,0.8,0.2c0.3,0.1,0.5,0.1,0.7,0.2c0.5,0.1,0.8,0.3,1.2,0.4c0.3,0.1,0.6,0.2,0.7,0.3
			c0.2,0.1,0.2,0.1,0.2,0.1C102.7,32.7,102.7,32.8,102.7,32.9z M105.2,47.2c0,0.6-0.4,1-1,1c-0.6,0-1-0.4-1-1V36.9c0-0.6,0.4-1,1-1
			c0.6,0,1,0.4,1,1V47.2z M109.8,47.2c0,0.6-0.4,1-1,1c-0.6,0-1-0.4-1-1V36.9c0-0.6,0.4-1,1-1c0.6,0,1,0.4,1,1V47.2z"/>
		<g>
			<path fill="#F0F1F2" d="M114.8,37.6v17.2c10.1,0,9.4,0,15.3,0V37.6H114.8z M119,52.5c0,0.3-0.3,0.6-0.6,0.6
				c-0.3,0-0.6-0.3-0.6-0.6V46c0-0.3,0.3-0.6,0.6-0.6c0.3,0,0.6,0.3,0.6,0.6V52.5z M121.9,52.5c0,0.3-0.3,0.6-0.6,0.6
				c-0.3,0-0.6-0.3-0.6-0.6V46c0-0.3,0.3-0.6,0.6-0.6c0.3,0,0.6,0.3,0.6,0.6V52.5z M124.8,52.5c0,0.3-0.3,0.6-0.6,0.6
				c-0.3,0-0.6-0.3-0.6-0.6V46c0-0.3,0.3-0.6,0.6-0.6c0.3,0,0.6,0.3,0.6,0.6V52.5z M127.8,52.5c0,0.3-0.3,0.6-0.6,0.6
				c-0.3,0-0.6-0.3-0.6-0.6V46c0-0.3,0.3-0.6,0.6-0.6c0.3,0,0.6,0.3,0.6,0.6V52.5z"/>
		</g>
		<g>
			<path fill="#F0F1F2" d="M51,37.6l0,17.2c5.9,0,5.1,0,15.3,0V37.6H51z M62,46c0-0.3,0.3-0.6,0.6-0.6c0.3,0,0.6,0.3,0.6,0.6v6.5
				c0,0.3-0.3,0.6-0.6,0.6c-0.3,0-0.6-0.3-0.6-0.6V46z M59.1,46c0-0.3,0.3-0.6,0.6-0.6c0.3,0,0.6,0.3,0.6,0.6v6.5
				c0,0.3-0.3,0.6-0.6,0.6c-0.3,0-0.6-0.3-0.6-0.6V46z M56.2,46c0-0.3,0.3-0.6,0.6-0.6c0.3,0,0.6,0.3,0.6,0.6v6.5
				c0,0.3-0.3,0.6-0.6,0.6c-0.3,0-0.6-0.3-0.6-0.6V46z M53.2,46c0-0.3,0.3-0.6,0.6-0.6c0.3,0,0.6,0.3,0.6,0.6v6.5
				c0,0.3-0.3,0.6-0.6,0.6c-0.3,0-0.6-0.3-0.6-0.6V46z"/>
		</g>
		<path fill="#FFFFFF" d="M67,37.6v17.2c0.1,0,0.1,0,0.2,0V37.6H67z"/>
	</g>
</g>
<path fill="#F0F1F2" d="M91.6,6.3c-0.2-0.1-0.3-0.6-0.3-0.8c0-0.3,0.1-0.6,0-1c-0.1-0.5-0.6-1-1.1-0.7c-0.2,0.1-0.3,0.2-0.4,0.4
	c-0.1,0.3,0,0.7-0.1,1c0,0.2-0.1,0.4-0.1,0.6c0,0.1-0.2,0.5-0.3,0.5c-0.1,0-0.1,0-0.2,0.1L89,7c0.1,0,0.1,0,0.2,0
	c0.4-0.1,0.9-0.2,1.5-0.2c0.5,0.1,1,0.1,1.3,0.3l-0.2-0.6C91.7,6.4,91.7,6.4,91.6,6.3z"/>
<path fill="#F0F1F2" d="M90.5,5.6L90.5,5.6c-0.2,0-0.4-0.2-0.4-0.4V2c0-0.2,0.2-0.4,0.4-0.4l0,0c0.2,0,0.4,0.2,0.4,0.4v3.3
	C90.9,5.4,90.7,5.6,90.5,5.6z"/>
<line fill="none" x1="12" y1="55.3" x2="156.3" y2="55.3"/>
<line fill="none" stroke="#F0F1F2" stroke-miterlimit="10" x1="1.5" y1="54.7" x2="179.5" y2="54.7"/>
</svg>
