<?xml version="1.0" encoding="utf-8"?>
<!-- Generator: Adobe Illustrator 18.0.0, SVG Export Plug-In . SVG Version: 6.00 Build 0)  -->
<!DOCTYPE svg PUBLIC "-//W3C//DTD SVG 1.1//EN" "http://www.w3.org/Graphics/SVG/1.1/DTD/svg11.dtd">
<svg version="1.1" id="Layer_1" xmlns="http://www.w3.org/2000/svg" xmlns:xlink="http://www.w3.org/1999/xlink" x="0px" y="0px"
	 viewBox="0 0 72 72" enable-background="new 0 0 72 72" xml:space="preserve">
<path fill="#143960" d="M59.5,49.9c0,1.3-1.1,2.4-2.4,2.4H14.7c-1.3,0-2.4-1.1-2.4-2.4V38.2H7.7v11.8c0,3.9,3.2,7.1,7.1,7.1h42.4
	c3.9,0,7.1-3.2,7.1-7.1V38.2h-4.7V49.9z"/>
<path fill="#AF1F23" d="M50,33.2c-0.2-0.4-0.6-0.7-1.1-0.7h-8.2V16h-9.4v16.5H23c-0.5,0-0.9,0.3-1.1,0.7c-0.2,0.4-0.1,0.9,0.3,1.3
	l13.8,13.3l13.8-13.3C50.1,34.2,50.2,33.7,50,33.2z"/>
</svg>
