<?xml version="1.0" encoding="utf-8"?>
<!-- Generator: Adobe Illustrator 18.0.0, SVG Export Plug-In . SVG Version: 6.00 Build 0)  -->
<!DOCTYPE svg PUBLIC "-//W3C//DTD SVG 1.1//EN" "http://www.w3.org/Graphics/SVG/1.1/DTD/svg11.dtd">
<svg version="1.1" id="Layer_1" xmlns="http://www.w3.org/2000/svg" xmlns:xlink="http://www.w3.org/1999/xlink" x="0px" y="0px"
	 viewBox="0 91.8 612 615.1" enable-background="new 0 91.8 612 615.1" xml:space="preserve">
<circle fill="none" stroke="#143B63" stroke-width="20" stroke-miterlimit="10" cx="306" cy="399.3" r="286.1"/>
<path fill="#AE1F23" d="M-652.4,444.2l72.3-52.5c19.8-14.4,20.9-26.7,18.3-34.5c-2.5-7.8-10.7-17.2-35.1-17.2h-89.4l-12.4-38.3
	c0-0.2-0.1-0.3-0.1-0.5l-15-46.3c-7.5-23.2-19-28.1-27.2-28.1c-8.2,0-19.6,4.9-27.2,28.1l-15,46.3c0,0.1-0.1,0.2-0.1,0.3l-12.5,38.5
	h-89.4c-24.4,0-32.6,9.3-35.1,17.2c-2.5,7.8-1.4,20.2,18.3,34.5l72.3,52.5l-27.6,85c-4.9,15-4.5,26.6,1.1,34.3
	c3.9,5.3,9.9,8.3,16.8,8.3c7.7,0,16.2-3.5,26.1-10.6l72.3-52.5l72.3,52.5c9.8,7.2,18.4,10.6,26.1,10.6c7,0,13-2.9,16.8-8.3
	c5.6-7.7,6-19.3,1.1-34.3L-652.4,444.2z M-654.2,541.1l-79.6-57.8c-1.3-1-2.8-1.7-4.4-2c-3.5-0.9-7.3-0.1-10.2,2l-79.6,57.8
	c-3.3,2.4-5.9,3.9-7.9,4.7c0.2-2.1,0.8-5,2.1-8.9l15-46.3c0-0.1,0.1-0.3,0.1-0.4l15.2-46.9c0.7-2,0.8-4.2,0.4-6.2
	c-0.6-3.1-2.3-5.8-4.9-7.7l-79.6-57.8c-3.3-2.4-5.5-4.4-6.9-6c2.1-0.4,5.1-0.8,9.1-0.8h98.4c2.7,0,5.4-0.9,7.5-2.5
	c2-1.5,3.5-3.6,4.3-6.1l15.3-47.2v0c0-0.1,0.1-0.2,0.1-0.2l15-46.1c1.3-3.9,2.5-6.6,3.6-8.5c1,1.8,2.3,4.6,3.6,8.5l14.9,46
	c0,0.2,0.1,0.3,0.1,0.5l15.3,47.1c1,3.2,3.3,5.8,6.3,7.3c0.3,0.1,0.5,0.3,0.8,0.4c1.5,0.6,3.1,1,4.8,1h98.3c4.1,0,7.1,0.4,9.1,0.8
	c-1.4,1.6-3.6,3.6-6.9,6l-79.6,57.8c-4.3,3.2-6.2,8.8-4.5,13.9l30.4,93.6c1.3,3.9,1.9,6.9,2.1,8.9
	C-648.3,544.9-650.9,543.5-654.2,541.1z"/>
<g>
	<path fill="#AE1F23" d="M446.5,456.2l-38.2-28.8c-5.9-4.7-13-7.2-19.9-7.2c-7,0-13.4,2.6-18,7.3c-0.1,0.1-0.3,0.3-0.5,0.5
		l-24.4,27.5l-2.2-1.6c-13-9.4-32.3-24.4-49.8-41.9c-18.4-18.4-34.2-39.1-41.9-49.8l-1.6-2.2l27.5-24.4c0.2-0.2,0.3-0.3,0.5-0.5
		c10.4-10.4,10.4-24.1,0.2-37.7l-29-38.5c-0.3-0.4-0.6-0.8-1-1.2c-5.5-5.5-13.1-13.1-26.6-13.1c-4.6,0-9.5,0.9-14.8,2.8
		c-8.5,3-22.7,12.9-35,28.3c-13.2,16.5-20.5,34.5-20.5,50.8c0,10.9,9.8,33.7,25.6,59.4c17.7,28.7,40,57.1,62.9,79.9
		c22.9,22.9,51.2,45.2,79.9,62.8c25.7,15.8,48.4,25.7,59.4,25.7h0c37,0,72.2-35.9,79.1-55.4c8.1-23-3.5-34.6-10.4-41.5
		C447.3,456.8,446.9,456.5,446.5,456.2z M436.7,491.2c-3.6,10.4-31.2,40.3-57.7,40.3h-0.1l-0.1,0c-11.1-0.5-70.8-29.6-123.2-81.9
		c-52.4-52.4-81.4-112-81.9-123.2l0-0.1c0-26.5,29.9-54.1,40.3-57.7c2.9-1,5.4-1.5,7.4-1.5c3.7,0,5.8,1.7,10,5.8l0.3,0.3l28.4,37.7
		c1.7,2.3,2.5,3.8,2.8,4.8l0.7,1.9l-36.1,32c-4.2,3.7-5,10-1.9,14.7c2.4,3.6,23.9,35.5,51.9,63.6c27.7,27.7,60,49.5,63.6,51.9
		c1.9,1.2,4,1.9,6.2,1.9c3.2,0,6.3-1.4,8.5-3.8l31.4-35.5l1.5,0.1c1,0.1,3,0.5,5.8,2.7l37.8,28.5l0.1,0.2
		C438.2,479.7,439.8,482.3,436.7,491.2z"/>
</g>
</svg>
