<?xml version="1.0" encoding="utf-8"?>
<!-- Generator: Adobe Illustrator 18.0.0, SVG Export Plug-In . SVG Version: 6.00 Build 0)  -->
<!DOCTYPE svg PUBLIC "-//W3C//DTD SVG 1.1//EN" "http://www.w3.org/Graphics/SVG/1.1/DTD/svg11.dtd">
<svg version="1.1" id="Layer_1" xmlns="http://www.w3.org/2000/svg" xmlns:xlink="http://www.w3.org/1999/xlink" x="0px" y="0px"
	 viewBox="0 91.8 612 615.1" enable-background="new 0 91.8 612 615.1" xml:space="preserve">
<circle fill="none" stroke="#143B63" stroke-width="20" stroke-miterlimit="10" cx="306" cy="399.3" r="286.1"/>
<path fill="#AE1F23" d="M394.7,444.2l72.3-52.5c19.8-14.4,20.9-26.7,18.3-34.5c-2.5-7.8-10.7-17.2-35.1-17.2h-89.4l-12.4-38.3
	c0-0.2-0.1-0.3-0.1-0.5l-15-46.3c-7.5-23.2-19-28.1-27.2-28.1c-8.2,0-19.6,4.9-27.2,28.1l-15,46.3c0,0.1-0.1,0.2-0.1,0.3L251.2,340
	h-89.4c-24.4,0-32.6,9.3-35.1,17.2c-2.5,7.8-1.4,20.2,18.3,34.5l72.3,52.5l-27.6,85c-4.9,15-4.5,26.6,1.1,34.3
	c3.9,5.3,9.9,8.3,16.8,8.3c7.7,0,16.2-3.5,26.1-10.6l72.3-52.5l72.3,52.5c9.8,7.2,18.4,10.6,26.1,10.6c7,0,13-2.9,16.8-8.3
	c5.6-7.7,6-19.3,1.1-34.3L394.7,444.2z M392.9,541.1l-79.6-57.8c-1.3-1-2.8-1.7-4.4-2c-3.5-0.9-7.3-0.1-10.2,2l-79.6,57.8
	c-3.3,2.4-5.9,3.9-7.9,4.7c0.2-2.1,0.8-5,2.1-8.9l15-46.3c0-0.1,0.1-0.3,0.1-0.4l15.2-46.9c0.7-2,0.8-4.2,0.4-6.2
	c-0.6-3.1-2.3-5.8-4.9-7.7l-79.6-57.8c-3.3-2.4-5.5-4.4-6.9-6c2.1-0.4,5.1-0.8,9.1-0.8h98.4c2.7,0,5.4-0.9,7.5-2.5
	c2-1.5,3.5-3.6,4.3-6.1l15.3-47.2v0c0-0.1,0.1-0.2,0.1-0.2l15-46.1c1.3-3.9,2.5-6.6,3.6-8.5c1,1.8,2.3,4.6,3.6,8.5l14.9,46
	c0,0.2,0.1,0.3,0.1,0.5l15.3,47.1c1,3.2,3.3,5.8,6.3,7.3c0.3,0.1,0.5,0.3,0.8,0.4c1.5,0.6,3.1,1,4.8,1h98.3c4.1,0,7.1,0.4,9.1,0.8
	c-1.4,1.6-3.6,3.6-6.9,6l-79.6,57.8c-4.3,3.2-6.2,8.8-4.5,13.9l30.4,93.6c1.3,3.9,1.9,6.9,2.1,8.9
	C398.8,544.9,396.2,543.5,392.9,541.1z"/>
</svg>
