<?xml version="1.0" encoding="utf-8"?>
<!-- Generator: Adobe Illustrator 18.0.0, SVG Export Plug-In . SVG Version: 6.00 Build 0)  -->
<!DOCTYPE svg PUBLIC "-//W3C//DTD SVG 1.1//EN" "http://www.w3.org/Graphics/SVG/1.1/DTD/svg11.dtd">
<svg version="1.1" id="Layer_1" xmlns="http://www.w3.org/2000/svg" xmlns:xlink="http://www.w3.org/1999/xlink" x="0px" y="0px"
	 viewBox="66.2 13.5 121.1 121.7" enable-background="new 66.2 13.5 121.1 121.7" xml:space="preserve">
<g>
	<path fill="#FFFFFF" enable-background="new    " d="M74,17.8h108v85.3l-56.8,28.8l-55.9-30.8V18.9C69.3,18.9,73.4,18.5,74,17.8z"
		/>
	<path fill="#FFFFFF" d="M143.5,99.2h-35.1c-7.3,0-13.3-6-13.3-13.3v-38c0-7.3,6-13.3,13.3-13.3h35.2c7.3,0,13.3,6,13.3,13.3v37.9
		C156.8,93.2,150.8,99.2,143.5,99.2z"/>
	<g>
		<path fill="#AF1F23" d="M168.9,27.3c-28.1,0-56.4,0-84.5,0c-1.3,0-2.3,0.6-3,1.2c-0.8,0.7-1.2,1.7-1.2,3c0,20.5,0,40.9,0,61.4
			c0,1.6,0.8,3,2.1,3.7c7.3,4.2,14.5,8.3,21.8,12.5c4.5,2.5,9.1,5.2,13.6,7.8c2.7,1.6,5.8,4.1,8.9,2.5c14.8-7.2,29.7-14.4,44.5-21.6
			c1.3-0.7,2.1-2.3,2.1-3.7c0-20.9,0-41.8,0-62.7C173.2,29.3,171.2,27.3,168.9,27.3z M151.5,85.6c0,0.6-0.4,1.1-1.1,1.1
			c-3.1,0-6.2,0-9.3,0c-0.6,0-1.1-0.4-1.1-1.1c0-8.9,0-17.6,0-26.5c-1.2,3.5-2.4,7.1-3.7,10.5c-1.9,5.4-3.7,10.7-5.5,16.2
			c-0.1,0.4-0.6,0.8-1,0.8c-2.3,0-4.8,0-7.1,0c-0.4,0-0.9-0.3-1-0.8c-1.8-5.4-3.5-10.9-5.3-16.3c-1.1-3.4-2.2-6.9-3.3-10.3
			c0,8.8,0,17.6,0,26.4c0,0.6-0.4,1.1-1.1,1.1c-3.1,0-6.2,0-9.3,0c-0.6,0-1.1-0.4-1.1-1.1c0-14.1,0-28.2,0-42.3
			c0-0.6,0.4-1.1,1.1-1.1c4.8,0,9.4,0,14.2,0c0.6,0,0.9,0.3,1,0.8c1.6,4.7,3.2,9.2,4.8,13.8c1.1,3.2,2.2,6.3,3.3,9.5
			c0.2,0.6,0.3,1.1,0.6,1.7c3-8.3,5.9-16.6,8.9-24.9c0.1-0.4,0.6-0.8,1-0.8c4.7,0,9.3,0,14,0c0.6,0,1.1,0.4,1.1,1.1
			C151.5,57.4,151.5,71.5,151.5,85.6z"/>
	</g>
	<g>
		<path fill="#023B5F" d="M124.1,135.2L124.1,135.2c-3.3,0-6.2-1.9-8.5-3.3c-0.6-0.3-1-0.7-1.6-1l-43.5-25.1
			c-2.7-1.6-4.3-4.4-4.3-7.6V22.2c0-2.4,0.9-4.7,2.5-6.2c1.6-1.7,3.8-2.5,6.1-2.5h103.8c4.8,0,8.6,4,8.6,8.8v77.6
			c0,3.2-1.9,6.4-4.5,7.8l-54.6,26.7C126.8,134.9,125.4,135.2,124.1,135.2z M74.8,20.4c-0.8,0-1,0.2-1.2,0.4L73.4,21
			c-0.2,0.2-0.4,0.4-0.4,1.2v76c0,0.7,0.3,1.2,0.9,1.6l43.5,25.1c0.6,0.3,1.2,0.7,1.8,1.1c1.8,1.1,3.5,2.2,5,2.2l0,0
			c0.3,0,0.7-0.1,1-0.2l54.6-26.7c0.2-0.1,0.7-0.9,0.7-1.4V22.2c0-1-0.9-1.9-1.9-1.9H74.8z"/>
	</g>
</g>
</svg>
