<?xml version="1.0" encoding="utf-8"?>
<!-- Generator: Adobe Illustrator 18.0.0, SVG Export Plug-In . SVG Version: 6.00 Build 0)  -->
<!DOCTYPE svg PUBLIC "-//W3C//DTD SVG 1.1//EN" "http://www.w3.org/Graphics/SVG/1.1/DTD/svg11.dtd">
<svg version="1.1" id="Layer_1" xmlns="http://www.w3.org/2000/svg" xmlns:xlink="http://www.w3.org/1999/xlink" x="0px" y="0px"
	 viewBox="0 0 72 72" enable-background="new 0 0 72 72" xml:space="preserve">
<path fill="#AF1F23" d="M36,48.6c5.9,0,10.6-4.8,10.6-10.6V22.5c0-5.9-4.8-10.6-10.6-10.6c-5.9,0-10.6,4.8-10.6,10.6V38
	C25.4,43.8,30.1,48.6,36,48.6z M27.3,37h4.8c0.5,0,1-0.4,1-1c0-0.5-0.4-1-1-1h-4.8v-1.9h4.8c0.5,0,1-0.4,1-1c0-0.5-0.4-1-1-1h-4.8
	v-1.9h4.8c0.5,0,1-0.4,1-1c0-0.5-0.4-1-1-1h-4.8v-1.9h4.8c0.5,0,1-0.4,1-1c0-0.5-0.4-1-1-1h-4.8v-1c0-4.8,3.9-8.7,8.7-8.7
	s8.7,3.9,8.7,8.7v1h-4.8c-0.5,0-1,0.4-1,1c0,0.5,0.4,1,1,1h4.8v1.9h-4.8c-0.5,0-1,0.4-1,1c0,0.5,0.4,1,1,1h4.8v1.9h-4.8
	c-0.5,0-1,0.4-1,1c0,0.5,0.4,1,1,1h4.8v1.9h-4.8c-0.5,0-1,0.4-1,1c0,0.5,0.4,1,1,1h4.8v1c0,4.8-3.9,8.7-8.7,8.7s-8.7-3.9-8.7-8.7V37
	z"/>
<path fill="#143960" d="M49.5,30.3c-0.5,0-1,0.4-1,1V38c0,6.9-5.6,12.5-12.5,12.5c-6.9,0-12.5-5.6-12.5-12.5v-6.8c0-0.5-0.4-1-1-1
	c-0.5,0-1,0.4-1,1V38c0,7.7,6,13.9,13.5,14.4v5.8h-7.7c-0.5,0-1,0.4-1,1c0,0.5,0.4,1,1,1h17.4c0.5,0,1-0.4,1-1c0-0.5-0.4-1-1-1H37
	v-5.8c7.5-0.5,13.5-6.8,13.5-14.4v-6.8C50.5,30.7,50,30.3,49.5,30.3z"/>
<polygon fill="#AF1F23" points="27.2,39.6 44.6,39.6 44.6,41.9 43.4,45.5 36.6,48.6 29,46 26.9,40.8 "/>
</svg>
