<?xml version="1.0" encoding="utf-8"?>
<!-- Generator: Adobe Illustrator 18.0.0, SVG Export Plug-In . SVG Version: 6.00 Build 0)  -->
<!DOCTYPE svg PUBLIC "-//W3C//DTD SVG 1.1//EN" "http://www.w3.org/Graphics/SVG/1.1/DTD/svg11.dtd">
<svg version="1.1" id="Layer_1" xmlns="http://www.w3.org/2000/svg" xmlns:xlink="http://www.w3.org/1999/xlink" x="0px" y="0px"
	 viewBox="0 0 72 72" enable-background="new 0 0 72 72" xml:space="preserve">
<g>
	<rect x="15.3" y="30.3" fill="none" width="13.8" height="11.5"/>
	<path fill="none" d="M57.8,15.3c0-0.6-0.5-1.1-1.1-1.1h-46c-0.6,0-1.1,0.5-1.1,1.1v39.1c0,1.9,1.5,3.4,3.4,3.4h45
		c-0.1-0.4-0.2-0.7-0.2-1.1V15.3z M13,29.1c0-0.6,0.5-1.1,1.1-1.1h16.1c0.6,0,1.1,0.5,1.1,1.1v13.8c0,0.6-0.5,1.1-1.1,1.1H14.2
		c-0.6,0-1.1-0.5-1.1-1.1V29.1z M53.2,53.2H14.2c-0.6,0-1.1-0.5-1.1-1.1c0-0.6,0.5-1.1,1.1-1.1h39.1c0.6,0,1.1,0.5,1.1,1.1
		C54.4,52.7,53.9,53.2,53.2,53.2z M53.2,48.6H14.2c-0.6,0-1.1-0.5-1.1-1.1c0-0.6,0.5-1.1,1.1-1.1h39.1c0.6,0,1.1,0.5,1.1,1.1
		C54.4,48.1,53.9,48.6,53.2,48.6z M53.2,44H34.9c-0.6,0-1.1-0.5-1.1-1.1c0-0.6,0.5-1.1,1.1-1.1h18.4c0.6,0,1.1,0.5,1.1,1.1
		C54.4,43.5,53.9,44,53.2,44z M53.2,39.4H34.9c-0.6,0-1.1-0.5-1.1-1.1c0-0.6,0.5-1.1,1.1-1.1h18.4c0.6,0,1.1,0.5,1.1,1.1
		C54.4,38.9,53.9,39.4,53.2,39.4z M53.2,34.9H34.9c-0.6,0-1.1-0.5-1.1-1.1c0-0.6,0.5-1.1,1.1-1.1h18.4c0.6,0,1.1,0.5,1.1,1.1
		C54.4,34.3,53.9,34.9,53.2,34.9z M53.2,30.3H34.9c-0.6,0-1.1-0.5-1.1-1.1c0-0.6,0.5-1.1,1.1-1.1h18.4c0.6,0,1.1,0.5,1.1,1.1
		C54.4,29.7,53.9,30.3,53.2,30.3z M54.4,22.2c0,0.6-0.5,1.1-1.1,1.1H14.2c-0.6,0-1.1-0.5-1.1-1.1v-1.1c0-0.6,0.5-1.1,1.1-1.1h39.1
		c0.6,0,1.1,0.5,1.1,1.1V22.2z"/>
	<path fill="#143960" d="M53.2,46.3H14.2c-0.6,0-1.1,0.5-1.1,1.1c0,0.6,0.5,1.1,1.1,1.1h39.1c0.6,0,1.1-0.5,1.1-1.1
		C54.4,46.9,53.9,46.3,53.2,46.3z"/>
	<path fill="#143960" d="M53.2,41.7H34.9c-0.6,0-1.1,0.5-1.1,1.1c0,0.6,0.5,1.1,1.1,1.1h18.4c0.6,0,1.1-0.5,1.1-1.1
		C54.4,42.3,53.9,41.7,53.2,41.7z"/>
	<path fill="#143960" d="M53.2,50.9H14.2c-0.6,0-1.1,0.5-1.1,1.1c0,0.6,0.5,1.1,1.1,1.1h39.1c0.6,0,1.1-0.5,1.1-1.1
		C54.4,51.4,53.9,50.9,53.2,50.9z"/>
	<path fill="#AF1F23" d="M14.2,44h16.1c0.6,0,1.1-0.5,1.1-1.1V29.1c0-0.6-0.5-1.1-1.1-1.1H14.2c-0.6,0-1.1,0.5-1.1,1.1v13.8
		C13,43.5,13.5,44,14.2,44z"/>
	<path fill="#143960" d="M63.6,18.8c-0.6,0-1.1,0.5-1.1,1.1v36.8c0,0.6-0.5,1.1-1.1,1.1c-0.6,0-1.1-0.5-1.1-1.1V15.3
		c0-1.9-1.5-3.4-3.4-3.4h-46c-1.9,0-3.4,1.5-3.4,3.4v39.1c0,3.2,2.6,5.7,5.7,5.7h48.2c0,0,0,0,0,0c1.9,0,3.4-1.5,3.4-3.4V19.9
		C64.7,19.3,64.2,18.8,63.6,18.8z M13,57.8c-1.9,0-3.4-1.5-3.4-3.4V15.3c0-0.6,0.5-1.1,1.1-1.1h46c0.6,0,1.1,0.5,1.1,1.1v41.4
		c0,0.4,0.1,0.8,0.2,1.1H13z"/>
	<path fill="#AF1F23" d="M53.2,19.9H14.2c-0.6,0-1.1,0.5-1.1,1.1v1.1c0,0.6,0.5,1.1,1.1,1.1h39.1c0.6,0,1.1-0.5,1.1-1.1v-1.1
		C54.4,20.4,53.9,19.9,53.2,19.9z"/>
	<path fill="#143960" d="M53.2,28H34.9c-0.6,0-1.1,0.5-1.1,1.1c0,0.6,0.5,1.1,1.1,1.1h18.4c0.6,0,1.1-0.5,1.1-1.1
		C54.4,28.5,53.9,28,53.2,28z"/>
	<path fill="#143960" d="M53.2,37.1H34.9c-0.6,0-1.1,0.5-1.1,1.1c0,0.6,0.5,1.1,1.1,1.1h18.4c0.6,0,1.1-0.5,1.1-1.1
		C54.4,37.7,53.9,37.1,53.2,37.1z"/>
	<path fill="#143960" d="M53.2,32.6H34.9c-0.6,0-1.1,0.5-1.1,1.1c0,0.6,0.5,1.1,1.1,1.1h18.4c0.6,0,1.1-0.5,1.1-1.1
		C54.4,33.1,53.9,32.6,53.2,32.6z"/>
</g>
</svg>
