<?xml version="1.0" encoding="utf-8"?>
<!-- Generator: Adobe Illustrator 18.0.0, SVG Export Plug-In . SVG Version: 6.00 Build 0)  -->
<!DOCTYPE svg PUBLIC "-//W3C//DTD SVG 1.1//EN" "http://www.w3.org/Graphics/SVG/1.1/DTD/svg11.dtd">
<svg version="1.1" id="Layer_1" xmlns="http://www.w3.org/2000/svg" xmlns:xlink="http://www.w3.org/1999/xlink" x="0px" y="0px"
	 viewBox="249 339.5 114 113.8" enable-background="new 249 339.5 114 113.8" xml:space="preserve">
<g>
	<path fill="#A09F9F" d="M306,452c-14.9,0-28.8-5.8-39.3-16.3c-10.5-10.5-16.3-24.5-16.3-39.3c0-14.9,5.8-28.8,16.3-39.3
		s24.5-16.3,39.3-16.3c14.9,0,28.8,5.8,39.3,16.3c10.5,10.5,16.3,24.5,16.3,39.3c0,14.9-5.8,28.8-16.3,39.3
		C334.8,446.2,320.9,452,306,452z M306,351.3c-12,0-23.3,4.7-31.9,13.2c-8.5,8.5-13.2,19.8-13.2,31.9c0,12,4.7,23.3,13.2,31.9
		c8.5,8.5,19.8,13.2,31.9,13.2c12,0,23.3-4.7,31.9-13.2s13.2-19.8,13.2-31.9c0-12-4.7-23.3-13.2-31.9C329.3,356,318,351.3,306,351.3
		z"/>
</g>
<g>
	<path fill="#A09F9F" d="M319.7,403.2l11.2-8.1c3.1-2.2,3.2-4.1,2.9-5.3c-0.4-1.2-1.7-2.6-5.4-2.6h-13.8l-1.9-5.9v-0.1l-2.3-7.2
		c-1.2-3.6-3-4.4-4.2-4.4c-1.3,0-3,0.8-4.2,4.4l-2.3,7.2v0.1l-1.9,6h-13.9c-3.8,0-5.1,1.5-5.4,2.6c-0.4,1.2-0.2,3.1,2.9,5.3
		l11.2,8.1l-4.3,13.2c-0.8,2.3-0.7,4.1,0.2,5.3c0.6,0.8,1.5,1.3,2.6,1.3c1.2,0,2.5-0.5,4-1.7l11.2-8.1l11.2,8.1
		c1.5,1.1,2.9,1.7,4,1.7c1.1,0,2-0.4,2.6-1.3c0.9-1.2,0.9-3,0.2-5.3L319.7,403.2z"/>
</g>
</svg>
