<?xml version="1.0" encoding="utf-8"?>
<!-- Generator: Adobe Illustrator 18.0.0, SVG Export Plug-In . SVG Version: 6.00 Build 0)  -->
<!DOCTYPE svg PUBLIC "-//W3C//DTD SVG 1.1//EN" "http://www.w3.org/Graphics/SVG/1.1/DTD/svg11.dtd">
<svg version="1.1" id="Layer_1" xmlns="http://www.w3.org/2000/svg" xmlns:xlink="http://www.w3.org/1999/xlink" x="0px" y="0px"
	 viewBox="0 0 72 72" enable-background="new 0 0 72 72" xml:space="preserve">
<g>
	<g>
		<g>
			<path fill="#58595B" d="M27.3,60.9c-0.6,0-1.2-0.2-1.7-0.7L12.5,47c-0.9-0.9-0.9-2.4,0-3.3l18.8-18.8c0.7-0.7,2.1-1.3,3.1-1.2
				L46.3,24c1.3,0,2.3,1.1,2.4,2.4L49,38.3c0,1-0.5,2.4-1.2,3.1L29,60.2C28.5,60.7,28,60.9,27.3,60.9z M34.3,25.5
				c-0.5,0-1.3,0.3-1.7,0.7L13.8,45c-0.2,0.2-0.2,0.5,0,0.7L27,58.9c0.1,0.1,0.3,0.1,0.4,0.1c0.1,0,0.2,0,0.4-0.1l18.8-18.8
				c0.4-0.4,0.7-1.2,0.7-1.7l-0.3-11.9c0-0.3-0.3-0.6-0.6-0.6L34.3,25.5z"/>
		</g>
	</g>
	<g>
		<circle fill="#F1F1EF" cx="39.6" cy="32.9" r="3.4"/>
		<path fill="#58595B" d="M39.6,37.2c-2.4,0-4.3-1.9-4.3-4.3c0-2.4,1.9-4.3,4.3-4.3c2.4,0,4.3,1.9,4.3,4.3
			C43.9,35.3,42,37.2,39.6,37.2z M39.6,30.4c-1.4,0-2.5,1.1-2.5,2.5c0,1.4,1.1,2.5,2.5,2.5c1.4,0,2.5-1.1,2.5-2.5
			C42.1,31.5,41,30.4,39.6,30.4z"/>
	</g>
	<g>
		<path fill="#58595B" d="M53.1,12.8c-4.3-1.1-9.8,1-12.4,8.1c-0.2,0.5,0.1,1,0.6,1.2c0.5,0.2,1-0.1,1.2-0.6c2.4-6.5,7-7.8,10.2-7
			c3,0.8,5.9,3.8,5.1,8.5c-0.8,4.6-3.9,7.5-9.3,8.6c-4.2,0.8-8.2,0.2-8.2,0.2c-0.5-0.1-1,0.3-1.1,0.8c-0.1,0.5,0.3,1,0.8,1.1
			c0.1,0,1.6,0.2,3.7,0.2c1.5,0,3.3-0.1,5.2-0.5c6.2-1.2,9.9-4.7,10.8-10.1c0.4-2.6,0-4.9-1.3-6.9C57,14.6,55.2,13.3,53.1,12.8z"/>
	</g>
</g>
</svg>
