<?xml version="1.0" encoding="utf-8"?>
<!-- Generator: Adobe Illustrator 18.0.0, SVG Export Plug-In . SVG Version: 6.00 Build 0)  -->
<!DOCTYPE svg PUBLIC "-//W3C//DTD SVG 1.1//EN" "http://www.w3.org/Graphics/SVG/1.1/DTD/svg11.dtd">
<svg version="1.1" id="Layer_1" xmlns="http://www.w3.org/2000/svg" xmlns:xlink="http://www.w3.org/1999/xlink" x="0px" y="0px"
	 viewBox="0 186.6 612 605.4" enable-background="new 0 186.6 612 605.4" xml:space="preserve">
<circle fill="none" stroke="#143B63" stroke-width="20" stroke-miterlimit="10" cx="306" cy="487.8" r="286.1"/>
<path fill="#AE1F23" d="M-652.4,532.7l72.3-52.5c19.8-14.4,20.9-26.7,18.3-34.5c-2.5-7.8-10.7-17.2-35.1-17.2h-89.4l-12.4-38.3
	c0-0.2-0.1-0.3-0.1-0.5l-15-46.3c-7.5-23.2-19-28.1-27.2-28.1s-19.6,4.9-27.2,28.1l-15,46.3c0,0.1-0.1,0.2-0.1,0.3l-12.5,38.5h-89.4
	c-24.4,0-32.6,9.3-35.1,17.2c-2.5,7.8-1.4,20.2,18.3,34.5l72.3,52.5l-27.6,85c-4.9,15-4.5,26.6,1.1,34.3c3.9,5.3,9.9,8.3,16.8,8.3
	c7.7,0,16.2-3.5,26.1-10.6l72.3-52.5l72.3,52.5c9.8,7.2,18.4,10.6,26.1,10.6c7,0,13-2.9,16.8-8.3c5.6-7.7,6-19.3,1.1-34.3
	L-652.4,532.7z M-654.2,629.5l-79.6-57.8c-1.3-1-2.8-1.7-4.4-2c-3.5-0.9-7.3-0.1-10.2,2l-79.6,57.8c-3.3,2.4-5.9,3.9-7.9,4.7
	c0.2-2.1,0.8-5,2.1-8.9l15-46.3c0-0.1,0.1-0.3,0.1-0.4l15.2-46.9c0.7-2,0.8-4.2,0.4-6.2c-0.6-3.1-2.3-5.8-4.9-7.7l-79.6-57.8
	c-3.3-2.4-5.5-4.4-6.9-6c2.1-0.4,5.1-0.8,9.1-0.8h98.4c2.7,0,5.4-0.9,7.5-2.5c2-1.5,3.5-3.6,4.3-6.1l15.3-47.2l0,0
	c0-0.1,0.1-0.2,0.1-0.2l15-46.1c1.3-3.9,2.5-6.6,3.6-8.5c1,1.8,2.3,4.6,3.6,8.5l14.9,46c0,0.2,0.1,0.3,0.1,0.5l15.3,47.1
	c1,3.2,3.3,5.8,6.3,7.3c0.3,0.1,0.5,0.3,0.8,0.4c1.5,0.6,3.1,1,4.8,1h98.3c4.1,0,7.1,0.4,9.1,0.8c-1.4,1.6-3.6,3.6-6.9,6l-79.6,57.8
	c-4.3,3.2-6.2,8.8-4.5,13.9l30.4,93.6c1.3,3.9,1.9,6.9,2.1,8.9C-648.3,633.4-650.9,632-654.2,629.5z"/>
<g>
	<g>
		<path fill="#AE1F23" d="M156.7,396.2c34.1,9.5,69.4,15.3,104.5,19.4c15.4,1.8,30.8,3,46.2,3.7c3.9,0.2,8.1,0.7,12,0
			c1.3-0.2-2.9,0.3-0.7,0.1c3.2-0.4,6.4-0.3,9.5,0c2,0.2,6.8,1.5,9.6,3.1c4.8,2.8,7,8.5,10,12.9c6.9,10.2,16,21,27.9,25.4
			c2.3,0.9,4.6,1.2,7.1,1.5c-2.1-0.9-4.1-1.7-6.2-2.6c12.4,10.7,32.8,19.2,45.9,4.9c8.7-9.5,18.9-16.7,28.9-24.6
			c8.8-6.9,16-16.4,22.6-25.4c3.1-4.2,5.9-9,6.3-14.2c0.2-2.7-1.1,3-1.9,4c0.9-1.2-1.9,1.2-0.5,0.3c0.4-0.3,0.9-0.5,1.4-0.7
			c-2.4,1.1,0.1,0.1,0.7-0.1c0.6-0.2,1.3-0.3,1.9-0.4c2.2-0.4-1.9,0.2,0.4-0.1c1.4-0.1,2.7-0.1,4.1,0c-3-0.2,3.3,1.2,0.4,0
			c0.6,0.3,1.9,1.3,0-0.2c1.2,1-1.1-2.8-0.7-1.3c-0.7-2.3-0.4,0.3,0-1.6c0,0.2-0.9,2.3-0.2,0.9c-1,2.2-2.6,4.2-4.1,6.2
			c-4,5.4-6.8,11.9-8.2,18.4c-2,9.2,0.2,16.8-6.7,23c-14.1,12.6-9.5,35.8-15.9,52.1c-1.6,4.1-4.6,7.4-7.9,10.1
			c-4.5,3.8-8.7,8.1-11.3,13.5c-1.7,3.5-2.4,7-3,10.7c-0.1,0.6-0.2,1.3-0.4,1.9c-0.5,2,0.9-1.6-0.1,0.1c0.3-0.5,2.1-1.8,0.5-0.8
			c-1.6,1,0.6-0.1-1.6,0.7c-4.3,1.4-8.4,1.8-11.9,5c-3,2.7-4.3,6.3-4.8,10.3c-0.8,6.8,2.6,13.9,5.7,19.7
			c5.3,9.9,12.5,19.1,19.9,27.5c-0.8-1.3-1.5-2.6-2.3-3.9c0.7,2.6,1.2,5.2,1.7,7.8c0.2,1.1,0.4,2.2,0.6,3.4c0.1,0.5,0.4,2.6,0,0
			c0.1,0.6,0.1,1.2,0.2,1.8c0.3,2.5,0.4,5,0.2,7.5c-0.1,2.4,0.5-1.8-0.2,1c-0.2,0.7-0.9,2,0.3-0.6c-0.3,0.7-1.2,1.6,0.6-0.6
			c0.2-0.3,2.8-1.4,3.5-1.4c2.3,0,1.7,0.3,0.7,0c-1.1-0.3,1.7,0.9-0.4-0.3c-6.9-4-15.1-15.5-21.2-23c-5.7-7-11.2-14.2-17.4-20.9
			c-3.3-3.5-7.2-6.7-12.3-6.8c-3.7-0.1-6.5,2.1-9.7,3.7c-2.3,1.2,1.6-0.5-0.5,0.2c-1.2,0.4-2.4,0.7-3.6,1c-5.1,1.3-9.9,5-12.1,9.8
			c-0.9,1.8-1.5,3.6-1.8,5.6c-0.2,1.2-0.3,2.4-0.5,3.6c-0.1,0.6-0.4,2.7,0-0.1c0,0.2-0.1,0.3-0.1,0.5c1.1-3.3,3.9-5,8.5-4.9
			c2.1,0.6-0.2-0.3-0.7-0.6c-2.5-1.6-5.1-2.8-7.8-3.9c-9.7-3.9-20.3-5.9-30.7-6.6c-16.5-1.2-39.8,10.2-36.2,29.4
			c0.4,1.9,1,3.6,1.1,4.7c0,0-0.2,3,0.1,1.4c0,0.1-0.8,2.8-0.2,1.3c-0.1,0.2-1.5,2.3-0.5,1c-1.4,1.6,1-0.4-0.9,0.7
			c1.3-0.8-1.4,0-0.1-0.1c-1.3,0.1-2.3-0.1-3.6-0.5c-10-2.5-17.3-11.2-21.7-20.1c-2.4-4.9-3.5-12.8-7.2-17.8
			c-3-4.1-6.8-5.9-11.9-5.1c-1.4,0.2-2.8,0.9-4,1.7c-2.2,1.5,0.1,0.2,1.2,0.4c1.2,0.3,0.2-0.2-0.3-0.8c-5.6-7.4-9-22.7-20.2-23.2
			c-3.7-0.2-6.6,1.8-9.3,4.1c-0.8,0.7-1.6,1.5-2.4,2.3c-0.3,0.3-2,1.6-0.2,0.3c-0.8,0.6-1.6,1-2.4,1.5c1.7-0.9-0.5,0.1-0.9,0.1
			c-2.4,0.6,1.4,0-1.2,0.1c-1.6,0-3.7-0.6-5.7-1.3c-7.1-2.4-14.1-5.2-21.1-7.9c-4.1-1.6-8.2-3.2-12.2-4.8c-2.7-1.1-4.8-2-8-1.2
			c-3.4,1-4.4,1.1-7.8,0.9c-0.6,0,0.2,0.4,0.3,0.6c-0.9-1.5-2.3-3-3.6-4.3c-6.1-6.2-13-11.5-18.9-17.9c-3-3.2-5.5-6.7-7.6-10.6
			c-2-3.9-1.7-6.5-1.2-10.5c1.4-9.9-0.9-18.1-6.6-26.1c-0.3-0.4-0.6-0.9-0.9-1.4c0.8,1.4,1,3-0.2,5.6c-1.3,2.7,0.4-0.5,1-1.4
			c0.9-1.2,1.3-2.8,1.6-4.2c1.1-5.9-0.9-11.8-2-17.6c-1.1-5.8,0.7-9.3,3.7-14.1c3.6-5.8,6.9-11.8,10-17.8
			c4.9-9.4,11.1-19.3,9.3-30.2c-0.2-1-0.4-2-0.5-3c-0.4-1.9-0.3-1.2-0.4-2.2c-0.3-4.3-10.9,4.4-6,5.7c2.4,0.7,4.7,1,7.2,1.3
			c3,0.4,6.4-0.2,9.2-1.3c1.5-0.6,3-1.3,4.5-2.1c0.7-0.4,3.2-1.3,0.8-0.7c-1.6,0-3.1,0-4.7,0c-1.3-0.2-3.3-2.9-2.2-1.1
			c0.5,0.8,0.9,1.7,1.3,2.6c-0.5-1.2,0.5,1.3,0.6,1.7c3.6,10.6,20.5,6.1,16.9-4.7c-2.9-8.4-9-19.8-19.7-14c-3.7,2-4.6,2.7-9.2,1.4
			c-6.3-1.8-13.5-0.1-15.5,6.9c-1.3,4.3,0,8.9,0.8,13.2c0.1,0.7,0.2,1.1-0.1,2.1c-0.7,2.3-0.9,2.5-1.7,4.4c-4.5,10-9.9,19.7-15.6,29
			c-3.1,5.2-5.9,9.9-6.3,16.1c-0.5,5.9,0.9,11.8,2.1,17.5c-0.1-0.3,0.6,3.3,0.4,1.9c0,0.3-0.2,3,0.2,1.1c0.1-0.7,2.4-4.2-0.5,0.3
			c-0.6,0.9-1.1,2-1.3,2.9c-1.1,3.9,0,7.7,2.1,11c1.5,2.3,3.5,5.3,4,6.6c1.6,4.7-0.1,9.5-0.3,14.4c-0.5,10.5,6.3,20.2,12.7,27.8
			c6.7,7.9,15.5,13.6,22.1,21.4c-1.8-2.1-0.5-0.5-0.1,0c1.1,1.7,2.7,3.3,4.4,4.3c3.1,1.8,6.2,2.4,9.7,2.7c4.1,0.4,8.8-0.5,12.7-1.6
			c-1.6,0-3.1,0-4.7,0c7,2.9,14,5.6,21.1,8.3c10.3,4,22.6,10.6,33.9,6.3c3.6-1.4,6.6-3.4,9.4-6.1c0.8-0.7,1.5-1.5,2.4-2.2
			c-2,1.7,0.5,0.1-2.1,1.2c-1.8,0.7-4.4-0.1-5.7-1.4c1.4,1.3-1.1-1.7,0.3,0.4c0.9,1.3,1.6,2.7,2.4,4.1c1.5,2.7,3,5.4,4.6,8.1
			c3.2,5.5,7,9.9,13,12.3c2.4,1,5.8,0.6,8.2-0.2c1.4-0.4,2.8-1.2,4-2c0.8-0.5,1.8-0.7-0.5,0.1c-2.2,0.7-4.8,0-6.4-1.6
			c-1.6-1.5-0.9-1.2-0.4-0.3c0.3,0.5,0.9,2.1,0,0c0.3,0.9,0.6,1.7,0.9,2.6c2.9,8.4,6,16.7,11.4,23.8c7.9,10.3,19.2,17.8,32.2,19.5
			c10.3,1.3,19.5-6.7,21-16.6c0.8-5,0.1-9.7-1.3-14.5c0-0.2,0-0.2,0-0.2c1.5-1.9,2.4-2.2,4.5-3.4c2.8-1.6,5.5-2.4,9-3.3
			c0.6-0.2,1.1-0.3,1.7-0.4c1.7-0.4-2.3,0.2,0,0c2.1-0.1,4.2,0.1,6.2,0.2c8.8,0.7,19,2.8,26.8,7.4c4.6,2.7,8.5,4.5,13.7,2.2
			c4.3-1.9,5.2-6.9,5.7-11c0.2-2.2-0.3,2,0-0.3c0.1-0.7,0.3-1.4,0.5-2.1c-0.6,2,0.8-0.9-0.3,0.5c1.1-1.3-0.5,0.1,1.3-0.9
			c2.1-1.1,5.4-1.6,7.7-2.6c1.2-0.5,2.2-1.2,3.3-1.8c0.8-0.5,2.6-1.2-0.7,0.1c0.9-0.4-2.1-0.1-2.9-0.2c1.5,0.2-2.4-1.3-0.5-0.2
			c1.5,0.9-1.8-1.6,0.3,0.3c2.1,1.9,3.9,4.1,5.7,6.3c7.7,9,14.9,18.4,22.5,27.5c5.5,6.6,12,13.9,20.4,16.8
			c7.4,2.6,13.6-2.3,16.2-8.8c3.4-8.7,0.2-20.8-1.8-29.5c-0.7-3.1-2.4-5.4-4.4-7.9c-4.3-5.1-6.2-7.5-10.3-13.5c-2-3-3.9-6.1-5.6-9.3
			c-0.4-0.8-0.8-1.5-1.2-2.3c-0.1-0.1-1.1-2.7-0.4-0.9c-0.6-1.6-1.1-3.2-1.5-4.9c0.6,2.7,0.6-3.4-0.1-0.1c0.3-1.8-1,1.7-0.1,0.1
			c-1.1,2,0.3,0-1.3,1.2c0.5-0.4,2.1-0.9,0.1-0.2c0.9-0.3,1.9-0.5,2.8-0.7c2.9-0.6,5.7-1.7,8.3-3.1c8-4.3,7.1-12.1,9.8-19.4
			c1.3-3.7,6.7-7.5,10.1-10.6c4.5-4.1,7.6-9.5,9.9-15c3.9-9.3,4.7-19.6,6-29.4c0.6-4.2,1.4-8.4,2.9-12.4c0-0.1,1.3-2.2,1.6-2.5
			c2-2.3,4.3-4.1,6.1-6.6c5.8-8,4.7-17.6,6.7-26.6c2.3-10.5,12.7-17.5,12.8-28.5c0.1-16.8-24.3-17.7-34.7-10.8
			c-3.6,2.4-5.5,5.5-5.9,9.8c0.2-2.3-0.4,0.8,0-0.2c-0.5,1.1-1.1,2-1.7,3c-1.6,2.6-3.4,4.9-5.3,7.3c-6.9,8.5-13.9,15.7-22.7,22.3
			c-5.1,3.9-10.2,7.8-15.1,12c-3.5,3.1-7.5,9.3-11.3,10.5c-1.9,0.6-5.8-0.4-8.2-1.4c-3.4-1.5-6.5-3.5-9.4-5.7
			c2.1,1.5,0.3,0.2-0.2-0.2c-2.3-2-5.2-2.4-6.7-2.8c-4.1-1-8.3-5.1-11.5-8.3c-8.9-9.1-13.1-21.9-24.2-28.8
			c-7.4-4.7-17.1-6.1-25.7-5.7c-1,0-2,0.1-3,0.3c-1,0.1-1.9,0.3-2.9,0.4c-0.5,0.1-0.1-0.3,0.1-0.3c-8.3-0.2-16.5-0.7-24.8-1.2
			c-43.2-3-87.2-9.8-129-21.5C150.5,376.3,145.8,393.2,156.7,396.2z"/>
	</g>
</g>
</svg>
